# Blender v3.6.7 OBJ File: 'Floor_2_Jan09_Edit.blend'
# www.blender.org
mtllib Floor_2_Jan09_Edit_Room5.mtl
g Floor2#Room5
v 1100.859253 -0.000015 231.504105
v 1100.859253 -0.000015 171.504105
v 1100.859253 99.999985 231.504105
v 1100.859253 99.999985 171.504105
v 1080.859253 99.999985 171.504105
v 1080.859253 99.999985 231.504105
v 1080.859253 -0.000015 171.504105
v 1080.859253 -0.000015 231.504105
v 1196.968628 -0.000015 616.573242
v 1196.968628 185.016739 -213.565002
v 1100.859253 99.999985 380.777405
v 1100.859253 -0.000015 380.777405
v 1100.859253 -0.000015 22.230820
v 1100.859253 99.999985 22.230820
v 1196.968628 99.999985 -213.565002
v 1196.968628 -0.000015 -213.565002
v 1247.379517 -267.724915 269.257996
v 1247.379517 -267.724915 122.681290
v 1100.859253 185.016739 171.504105
v 1100.859253 185.016739 231.504105
v 1196.968628 -267.724915 -213.565002
v 1196.968628 -267.724915 616.573242
v 1100.859253 185.016739 22.230820
v 1100.859253 185.016739 380.777405
v 1196.968628 185.016739 616.573242
v 1247.379517 -0.000015 122.681290
v 1196.968628 99.999985 616.573242
v 1247.379517 -0.000015 269.257996
v 1739.416870 -0.000015 764.200806
v 1739.416870 185.016739 -361.192535
v 1739.416870 99.999985 -361.192535
v 1739.416870 -0.000015 -361.192535
v 1739.416870 -267.724915 -361.192535
v 1739.416870 -267.724915 764.200806
v 1739.416870 185.016739 764.200806
v 1739.416870 99.999985 764.200806
v 2142.014404 -0.000015 503.907898
v 2142.014404 185.016739 -100.899628
v 2142.014404 99.999985 -100.899628
v 2142.014404 -0.000015 -100.899628
v 2142.014404 -267.724915 -100.899628
v 2142.014404 -267.724915 503.907898
v 2142.014404 185.016739 503.907898
v 2142.014404 99.999985 503.907898
v 1654.359497 -267.724915 -70.901764
v 1654.359497 -267.724915 -217.478485
v 1800.879761 -267.724915 -70.901764
v 1553.692993 8.385762 610.520508
v 1553.692993 8.385762 463.943848
v 1700.213257 8.385762 463.943848
v 1700.213257 8.385762 610.520508
v 1664.359497 185.016739 -80.901764
v 1664.359497 -267.724915 -80.901764
v 1553.692993 -62.567211 610.520508
v 1553.692993 -62.567211 463.943848
v 1700.213257 -62.567211 463.943848
v 1700.213257 -62.567211 610.520508
v 1654.359497 185.016739 -70.901764
v 1654.359497 185.016739 -217.478485
v 1800.879761 185.016739 -70.901764
v 1800.879761 -267.724915 -80.901764
v 1800.879761 185.016739 -80.901764
v 1664.359497 -267.724915 -217.478485
v 1664.359497 185.016739 -217.478485
v 1100.859253 1.927769 231.504105
v 1759.919922 58.452503 -70.901764
v 1800.879761 20.470982 -70.901764
v 1800.879761 17.544254 -80.901764
v 1800.879761 19.679173 -74.553680
vc 1.000000 1.000000 1.000000 1.000000
vc 1.000000 1.000000 1.000000 1.000000
vc 1.000000 1.000000 1.000000 1.000000
vc 1.000000 1.000000 1.000000 1.000000
vc 1.000000 1.000000 1.000000 1.000000
vc 1.000000 1.000000 1.000000 1.000000
vc 1.000000 1.000000 1.000000 1.000000
vc 1.000000 1.000000 1.000000 1.000000
vc 1.000000 1.000000 1.000000 1.000000
vc 1.000000 1.000000 1.000000 1.000000
vc 1.000000 1.000000 1.000000 1.000000
vc 1.000000 1.000000 1.000000 1.000000
vc 1.000000 1.000000 1.000000 1.000000
vc 1.000000 1.000000 1.000000 1.000000
vc 1.000000 1.000000 1.000000 1.000000
vc 1.000000 1.000000 1.000000 1.000000
vc 1.000000 1.000000 1.000000 1.000000
vc 1.000000 1.000000 1.000000 1.000000
vc 1.000000 1.000000 1.000000 1.000000
vc 1.000000 1.000000 1.000000 1.000000
vc 1.000000 1.000000 1.000000 1.000000
vc 1.000000 1.000000 1.000000 1.000000
vc 1.000000 1.000000 1.000000 1.000000
vc 1.000000 1.000000 1.000000 1.000000
vc 1.000000 1.000000 1.000000 1.000000
vc 1.000000 1.000000 1.000000 1.000000
vc 1.000000 1.000000 1.000000 1.000000
vc 1.000000 1.000000 1.000000 1.000000
vc 1.000000 1.000000 1.000000 1.000000
vc 1.000000 1.000000 1.000000 1.000000
vc 1.000000 1.000000 1.000000 1.000000
vc 1.000000 1.000000 1.000000 1.000000
vc 1.000000 1.000000 1.000000 1.000000
vc 1.000000 1.000000 1.000000 1.000000
vc 1.000000 1.000000 1.000000 1.000000
vc 1.000000 1.000000 1.000000 1.000000
vc 1.000000 1.000000 1.000000 1.000000
vc 1.000000 1.000000 1.000000 1.000000
vc 1.000000 1.000000 1.000000 1.000000
vc 1.000000 1.000000 1.000000 1.000000
vc 1.000000 1.000000 1.000000 1.000000
vc 1.000000 1.000000 1.000000 1.000000
vc 1.000000 1.000000 1.000000 1.000000
vc 1.000000 1.000000 1.000000 1.000000
vc 1.000000 1.000000 1.000000 1.000000
vc 1.000000 1.000000 1.000000 1.000000
vc 1.000000 1.000000 1.000000 1.000000
vc 1.000000 1.000000 1.000000 1.000000
vc 1.000000 1.000000 1.000000 1.000000
vc 1.000000 1.000000 1.000000 1.000000
vc 1.000000 1.000000 1.000000 1.000000
vc 1.000000 1.000000 1.000000 1.000000
vc 1.000000 1.000000 1.000000 1.000000
vc 1.000000 1.000000 1.000000 1.000000
vc 1.000000 1.000000 1.000000 1.000000
vc 1.000000 1.000000 1.000000 1.000000
vc 1.000000 1.000000 1.000000 1.000000
vc 1.000000 1.000000 1.000000 1.000000
vc 1.000000 1.000000 1.000000 1.000000
vc 1.000000 1.000000 1.000000 1.000000
vc 1.000000 1.000000 1.000000 1.000000
vc 1.000000 1.000000 1.000000 1.000000
vc 1.000000 1.000000 1.000000 1.000000
vc 1.000000 1.000000 1.000000 1.000000
vc 1.000000 1.000000 1.000000 1.000000
vc 1.000000 1.000000 1.000000 1.000000
vc 1.000000 1.000000 1.000000 1.000000
vc 1.000000 1.000000 1.000000 1.000000
vc 1.000000 1.000000 1.000000 1.000000
vt 0.750000 0.812500
vt 2.250000 0.000000
vt 0.750000 1.500000
vt 2.250000 1.500000
vt 3.812500 0.812500
vt 3.812500 1.500000
vt 0.281250 1.500000
vt 7.437500 0.812500
vt 7.437500 -0.000000
vt 0.281250 0.015663
vt -1.125000 0.812500
vt -1.125000 0.000000
vt 3.812500 -0.000000
vt 2.250000 0.812500
vt -2.906250 1.500000
vt 10.562500 -0.000000
vt -2.906250 0.812500
vt -6.718750 1.500000
vt -2.906250 0.000000
vt 2.250000 0.812500
vt -1.125000 0.000000
vt 2.250000 1.500000
vt -1.125000 0.812500
vt -1.125000 1.500000
vt -6.718750 0.000000
vt -9.859375 0.812500
vt -9.859375 0.000000
vt -9.859375 1.500000
vt -6.718750 0.812500
vt 7.437500 1.500000
vt 10.562500 0.812500
vt 10.562500 1.500000
vt 0.281250 0.812500
vt -1.125000 1.500000
vt 0.750000 0.000000
vt 0.281250 0.000000
vt 2.250000 0.000000
vt -0.406250 -0.000000
vt 1.406250 1.000000
vt 1.406250 0.000000
vt -3.000000 1.000000
vt -3.000000 0.000000
vt -0.406250 1.000000
vt 3.968750 0.000000
vt 3.919351 1.000000
vt 3.968750 1.000000
vt 2.843750 -0.000000
vt 4.187500 1.000000
vt 2.843750 1.000000
vt 4.531250 -0.000000
vt 5.875000 1.000000
vt 4.531250 1.000000
vt 4.187500 -0.000000
vt -0.718750 1.000000
vt 1.718750 0.000000
vt 1.718750 1.000000
vt 0.843750 1.000000
vt 0.843750 -0.000000
vt -4.875000 1.000000
vt -3.187500 -0.000000
vt -3.187500 1.000000
vt -0.843750 1.000000
vt -0.843750 -0.000000
vt 5.875000 -0.000000
vt -0.718750 0.000000
vt -4.875000 -0.000000
vt 1.843750 0.708565
vt 1.218750 1.968750
vt 1.843750 -0.031250
vt 0.562500 1.968750
vt 0.562500 -0.031250
vt 1.218750 -0.031250
vt 0.542662 0.699134
vt 0.531250 -0.031250
vt 0.531250 0.695636
vt 0.562500 0.708565
vt 0.562500 -0.031250
vt -0.000000 1.000000
vt 0.500000 -0.000000
vt 0.500000 1.000000
vt 0.000070 0.000070
vt 1.000000 1.000000
vt 0.000000 1.000000
vt 0.000000 1.000000
vt 0.500000 -0.000000
vt 0.500000 1.000000
vt 1.000000 1.000000
vt 0.000070 0.000070
vt 0.999930 0.000070
vt -0.000000 0.000000
vt 1.000000 1.000000
vt -0.000000 1.000000
vt -0.651559 0.527851
vt -0.156250 -0.031250
vt -0.156250 1.968750
vt 0.531250 1.968750
vt 0.531250 -0.031250
vt -0.843750 0.695636
vt -0.843750 -0.031250
vt 0.999930 0.000070
vt 0.000000 -0.000000
vt -0.000000 -0.000000
vt 1.000000 0.000000
vt 1.843750 1.968750
vt 0.531250 1.968750
vt 0.562500 1.968750
vt -0.843750 1.968750
vt -0.062500 -2.000000
vt 2.781250 0.375000
vt -1.843750 1.843750
vt 2.781250 -0.281250
vt 2.781250 1.281250
vt 2.343750 2.343750
vt -0.062500 3.000000
vt -1.843750 -0.843750
vt 2.343750 -1.343750
vt 2.781250 0.625000
vn 0.9045 -0.3015 0.3015
vn 0.9813 0.0000 0.1923
vn 0.7071 -0.7071 0.0000
vn 0.7318 -0.6663 0.1434
vn 0.6629 0.0000 0.7487
vn 0.5203 -0.6197 0.5876
vn -0.1535 0.0000 0.9881
vn 0.7071 0.0000 -0.7071
vn 0.9813 0.0000 -0.1923
vn 0.7489 0.0000 0.6626
vn 0.5203 -0.6197 -0.5876
vn -0.8783 0.0000 0.4780
vn 0.6629 0.0000 -0.7487
vn -0.1197 -0.6258 -0.7707
vn 0.7483 0.0000 -0.6633
vn -0.8783 0.0000 -0.4780
vn -0.6935 -0.6137 0.3774
vn -0.6935 -0.6137 -0.3774
vn -0.1535 0.0000 -0.9881
vn -0.1197 -0.6258 0.7707
vn 0.9045 -0.3015 -0.3015
vn 0.7318 -0.6663 -0.1434
vn 0.7071 0.0000 0.7071
vn 0.0000 -0.7071 0.7071
vn 0.0000 -0.7071 -0.7071
vn 0.0000 0.0000 1.0000
vn 0.0000 0.0000 -1.0000
vn 0.9972 0.0000 -0.0743
vn 0.8375 0.0000 0.5465
vn 0.9974 0.0000 0.0720
vn 0.8362 0.0000 -0.5484
vn 1.0000 0.0000 0.0000
vn -0.5774 -0.5774 0.5774
vn 0.5774 -0.5774 0.5774
vn 0.5774 -0.5774 -0.5774
vn -0.7071 0.0000 -0.7071
vn -0.5774 -0.5774 -0.5774
vn -0.7071 0.0000 0.7071
usemtl Material.003
s 1
f 4/1/1 13/2/2 19/3/3
fc 1 2 3
f 23/4/4 15/5/5 10/6/6
fc 4 5 6
f 4/1/1 19/3/3 20/7/3
fc 1 3 7
f 31/8/7 10/6/6 32/9/7
fc 8 6 9
f 65/10/8 11/11/9 12/12/9
fc 10 11 12
f 16/13/10 14/14/2 13/2/2
fc 13 14 2
f 19/3/3 14/14/2 23/4/4
fc 3 14 4
f 32/9/7 15/5/5 16/13/10
fc 9 5 13
f 11/11/9 25/15/11 12/12/9
fc 11 15 12
f 40/16/12 31/8/7 32/9/7
fc 16 8 9
f 27/17/13 35/18/14 9/19/15
fc 17 18 19
f 39/20/12 37/21/16 38/22/17
fc 20 21 22
f 38/22/17 44/23/16 43/24/18
fc 22 23 24
f 29/25/19 44/26/16 37/27/16
fc 25 23 21
f 43/28/18 36/29/19 35/18/14
fc 24 26 18
f 30/30/20 39/31/12 38/32/17
fc 27 20 22
f 20/7/3 3/33/21 4/1/1
fc 7 28 1
f 9/19/15 36/29/19 29/25/19
fc 19 26 25
f 12/12/9 27/17/13 9/19/15
fc 12 17 19
f 24/34/22 3/33/21 20/7/3
fc 29 28 7
f 4/1/1 2/35/23 13/2/2
fc 1 30 2
f 23/4/4 16/13/10 15/5/5
fc 4 13 5
f 31/8/7 30/30/20 10/6/6
fc 8 27 6
f 12/12/9 1/36/8 65/10/8
fc 12 31 10
f 65/10/8 24/34/22 11/11/9
fc 10 29 11
f 16/13/10 23/4/4 14/14/2
fc 13 4 14
f 19/3/3 13/2/2 14/14/2
fc 3 2 14
f 32/9/7 10/6/6 15/5/5
fc 9 6 5
f 11/11/9 24/34/22 25/15/11
fc 11 29 15
f 40/16/12 30/30/20 31/8/7
fc 16 27 8
f 27/17/13 25/15/11 35/18/14
fc 17 15 18
f 39/20/12 40/37/12 37/21/16
fc 20 16 21
f 38/22/17 37/21/16 44/23/16
fc 22 21 23
f 29/25/19 43/28/18 44/26/16
fc 25 24 23
f 43/28/18 29/25/19 36/29/19
fc 24 25 26
f 30/30/20 40/16/12 39/31/12
fc 27 16 20
f 9/19/15 35/18/14 36/29/19
fc 19 18 26
f 12/12/9 25/15/11 27/17/13
fc 12 15 17
f 24/34/22 65/10/8 3/33/21
fc 29 10 28
usemtl Material.017
f 5/38/24 3/39/21 6/40/25
fc 32 28 33
f 2/41/23 5/38/24 7/42/26
fc 30 32 34
f 2/41/23 4/43/1 5/38/24
fc 30 1 32
f 8/44/27 6/40/25 3/39/21
fc 35 33 28
f 8/44/27 65/45/8 1/46/8
fc 35 10 31
f 5/38/24 4/43/1 3/39/21
fc 32 1 28
f 8/44/27 3/39/21 65/45/8
fc 35 28 10
usemtl _11
f 16/47/10 18/48/28 21/49/29
fc 13 36 37
f 28/50/30 22/51/31 17/52/30
fc 38 39 40
f 26/53/28 17/52/30 18/48/28
fc 41 40 36
f 22/54/31 29/55/19 34/56/19
fc 39 25 42
f 16/47/10 33/57/7 32/58/7
fc 13 43 9
f 34/59/19 37/60/16 42/61/16
fc 42 21 44
f 32/58/7 41/62/12 40/63/12
fc 9 45 16
f 42/61/16 40/63/12 41/62/12
fc 44 16 45
f 16/47/10 26/53/28 18/48/28
fc 13 41 36
f 28/50/30 9/64/15 22/51/31
fc 38 19 39
f 26/53/28 28/50/30 17/52/30
fc 41 38 40
f 22/54/31 9/65/15 29/55/19
fc 39 19 25
f 16/47/10 21/49/29 33/57/7
fc 13 37 43
f 34/59/19 29/66/19 37/60/16
fc 42 25 21
f 32/58/7 33/57/7 41/62/12
fc 9 43 45
f 42/61/16 37/60/16 40/63/12
fc 44 21 16
usemtl Material.004
f 68/67/8 53/68/8 62/69/8
fc 46 47 48
f 63/70/8 64/71/8 52/72/8
fc 49 50 51
f 69/73/32 60/74/23 67/75/23
fc 52 53 54
f 68/76/8 62/77/8 69/73/32
fc 46 48 52
f 51/78/23 54/79/33 57/80/34
fc 55 56 57
f 62/69/8 53/68/8 52/72/8
fc 48 47 51
f 50/81/8 57/82/34 56/83/35
fc 58 57 59
f 49/84/36 56/85/35 55/86/37
fc 60 59 61
f 48/87/38 55/88/37 54/89/33
fc 62 61 56
f 63/70/8 52/72/8 53/68/8
fc 49 51 47
f 54/90/33 56/91/35 57/92/34
fc 56 59 57
f 66/93/26 58/94/38 45/95/38
fc 63 64 65
f 46/96/36 58/94/38 59/97/36
fc 66 64 67
f 46/96/36 45/95/38 58/94/38
fc 66 65 64
f 46/96/36 64/71/8 63/70/8
fc 66 50 49
f 46/96/36 59/97/36 64/71/8
fc 66 67 50
f 67/98/23 60/99/23 66/93/26
fc 54 53 63
f 50/81/8 51/100/23 57/82/34
fc 58 55 57
f 49/84/36 50/101/8 56/85/35
fc 60 58 59
f 48/87/38 49/84/36 55/88/37
fc 62 60 61
f 51/78/23 48/102/38 54/79/33
fc 55 62 56
f 54/90/33 55/103/37 56/91/35
fc 56 61 59
f 68/67/8 61/104/8 53/68/8
fc 46 68 47
f 67/75/23 47/105/23 69/73/32
fc 54 69 52
f 47/105/23 61/106/8 69/73/32
fc 69 68 52
f 60/74/23 69/73/32 62/77/8
fc 53 52 48
f 69/73/32 61/106/8 68/76/8
fc 52 68 46
f 66/93/26 60/99/23 58/94/38
fc 63 53 64
f 66/93/26 45/95/38 67/98/23
fc 63 65 54
f 45/95/38 47/107/23 67/98/23
fc 65 69 54
usemtl Material.025
f 35/108/14 20/109/3 38/110/17
fc 18 7 22
f 24/111/22 20/109/3 35/108/14
fc 29 7 18
f 23/112/4 10/113/6 30/114/20
fc 4 6 27
f 30/114/20 38/110/17 20/109/3
fc 27 22 7
f 38/110/17 43/115/18 35/108/14
fc 22 24 18
f 35/108/14 25/116/11 24/111/22
fc 18 15 29
f 19/117/3 30/114/20 20/109/3
fc 3 27 7
f 19/117/3 23/112/4 30/114/20
fc 3 4 27
g Floor2#Room5#Generic#NoCull
v 1553.692993 8.385762 610.520508
v 1553.692993 8.385762 463.943848
v 1700.213257 8.385762 463.943848
v 1700.213257 8.385762 610.520508
v 1553.692993 185.016739 610.520508
v 1553.692993 185.016739 463.943848
v 1700.213257 185.016739 463.943848
v 1700.213257 185.016739 610.520508
v 1554.755249 8.385762 609.457886
v 1554.755249 8.385762 465.006470
v 1700.213257 8.385762 465.006470
v 1700.213257 8.385762 609.457886
v 1554.755249 185.016739 609.457886
v 1554.755249 185.016739 465.006470
v 1700.213257 185.016739 465.006470
v 1700.213257 185.016739 609.457886
vc 1.000000 1.000000 1.000000 1.000000
vc 1.000000 1.000000 1.000000 1.000000
vc 1.000000 1.000000 1.000000 1.000000
vc 1.000000 1.000000 1.000000 1.000000
vc 1.000000 1.000000 1.000000 1.000000
vc 1.000000 1.000000 1.000000 1.000000
vc 1.000000 1.000000 1.000000 1.000000
vc 1.000000 1.000000 1.000000 1.000000
vc 1.000000 1.000000 1.000000 1.000000
vc 1.000000 1.000000 1.000000 1.000000
vc 1.000000 1.000000 1.000000 1.000000
vc 1.000000 1.000000 1.000000 1.000000
vc 1.000000 1.000000 1.000000 1.000000
vc 1.000000 1.000000 1.000000 1.000000
vc 1.000000 1.000000 1.000000 1.000000
vc 1.000000 1.000000 1.000000 1.000000
vt -7.625000 0.000000
vt -2.500000 0.968750
vt -7.625000 0.968750
vt 3.500000 -0.000000
vt 8.687500 0.968750
vt 3.500000 0.968750
vt -2.500000 0.000000
vt -7.625002 -0.000000
vt -2.537154 0.968750
vt -2.537154 0.000000
vt 3.537608 0.000000
vt 8.687499 0.968750
vt 8.687500 -0.000000
vt -2.456503 0.000000
vt 3.456502 0.968750
vt 3.456502 -0.000000
vt 3.537607 0.968750
vt -2.456503 0.968750
vt -7.625000 0.968750
vt 8.687500 0.000000
vn 0.0000 0.0000 -1.0000
vn -0.7071 0.0000 -0.7071
vn -0.7071 0.0000 0.7071
vn 0.0000 0.0000 1.0000
vn 0.7071 0.0000 0.7071
vn 0.7071 0.0000 -0.7071
usemtl _18
s 1
f 72/118/39 75/119/40 76/120/39
fc 70 71 72
f 70/121/41 77/122/42 74/123/41
fc 73 74 75
f 71/124/40 74/123/41 75/119/40
fc 76 75 71
f 80/125/42 83/126/43 79/127/43
fc 77 78 79
f 78/128/44 85/129/39 81/130/39
fc 80 81 82
f 79/131/43 82/132/44 78/133/44
fc 79 83 80
f 72/118/39 71/124/40 75/119/40
fc 70 76 71
f 71/124/40 70/121/41 74/123/41
fc 76 73 75
f 78/128/44 82/134/44 85/129/39
fc 80 83 81
f 79/131/43 83/135/43 82/132/44
fc 79 78 83
f 80/125/42 84/136/42 83/126/43
fc 77 84 78
f 70/121/41 73/137/42 77/122/42
fc 73 85 74
g Floor2#Room5#Water
v 1171.680054 -15.369352 789.582520
v 1171.680054 -15.369352 -386.574310
v 2161.239258 -15.369352 -386.574310
v 2161.239258 -15.369352 789.582520
vc 1.000000 1.000000 1.000000 1.000000
vc 1.000000 1.000000 1.000000 1.000000
vc 1.000000 1.000000 1.000000 1.000000
vc 1.000000 1.000000 1.000000 1.000000
vt -1.687500 -1.437500
vt 2.687500 -1.437500
vt 2.687500 2.281250
vt -1.687500 2.281250
vn 0.0000 1.0000 0.0000
usemtl Material.009
s 1
f 87/138/45 86/139/45 89/140/45
fc 86 87 88
f 89/140/45 88/141/45 87/138/45
fc 88 89 86
g Floor2#Room5#Stone
v 1247.379517 -267.724915 269.257996
v 1247.379517 -267.724915 122.681290
v 1196.968628 -267.724915 -213.565002
v 1196.968628 -267.724915 616.573242
v 1739.416870 -267.724915 -361.192535
v 1739.416870 -267.724915 764.200806
v 2142.014404 -267.724915 -100.899628
v 2142.014404 -267.724915 503.907898
v 1553.692993 8.385762 610.520508
v 1553.692993 8.385762 463.943848
v 1700.213257 8.385762 463.943848
v 1700.213257 8.385762 610.520508
vc 1.000000 1.000000 1.000000 1.000000
vc 1.000000 1.000000 1.000000 1.000000
vc 1.000000 1.000000 1.000000 1.000000
vc 1.000000 1.000000 1.000000 1.000000
vc 1.000000 1.000000 1.000000 1.000000
vc 1.000000 1.000000 1.000000 1.000000
vc 1.000000 1.000000 1.000000 1.000000
vc 1.000000 1.000000 1.000000 1.000000
vc 1.000000 1.000000 1.000000 1.000000
vc 1.000000 1.000000 1.000000 1.000000
vc 1.000000 1.000000 1.000000 1.000000
vc 1.000000 1.000000 1.000000 1.000000
vt -0.734375 0.718750
vt -0.734375 0.312500
vt 1.718750 -0.328125
vt -0.875000 -0.640625
vt 0.609375 -1.046875
vt 1.718750 1.328125
vt 0.609375 2.046875
vt -0.875000 1.640625
vt 0.000100 0.000100
vt 0.999900 0.000100
vt 0.000100 0.999515
vt 0.999900 0.999515
vn 0.0000 1.0000 0.0000
usemtl Material.005
s 1
f 91/142/46 90/143/46 97/144/46
fc 90 91 92
f 90/143/46 93/145/46 95/146/46
fc 91 93 94
f 95/146/46 97/144/46 90/143/46
fc 94 92 91
f 97/144/46 96/147/46 91/142/46
fc 92 95 90
f 96/147/46 94/148/46 91/142/46
fc 95 96 90
f 94/148/46 92/149/46 91/142/46
fc 96 97 90
usemtl Material.004
f 99/150/46 98/151/46 100/152/46
fc 98 99 100
f 101/153/46 100/152/46 98/151/46
fc 101 100 99
g Floor2#Room5#Snow
v 1100.859253 -0.000015 231.504105
v 1100.859253 -0.000015 171.504105
v 1080.859253 -0.000015 171.504105
v 1080.859253 -0.000015 231.504105
v 1196.968628 -0.000015 616.573242
v 1100.859253 -0.000015 380.777405
v 1100.859253 -0.000015 22.230820
v 1196.968628 -0.000015 -213.565002
v 1247.379517 -0.000015 122.681290
v 1247.379517 -0.000015 269.257996
vc 1.000000 1.000000 1.000000 1.000000
vc 1.000000 1.000000 1.000000 1.000000
vc 1.000000 1.000000 1.000000 1.000000
vc 1.000000 1.000000 1.000000 1.000000
vc 1.000000 1.000000 1.000000 1.000000
vc 1.000000 1.000000 1.000000 1.000000
vc 1.000000 1.000000 1.000000 1.000000
vc 1.000000 1.000000 1.000000 1.000000
vc 1.000000 1.000000 1.000000 1.000000
vc 1.000000 1.000000 1.000000 1.000000
vt -6.828125 -0.546875
vt -6.453125 -0.703125
vt -6.453125 -0.546875
vt -6.828125 -0.703125
vt -7.671875 -0.703125
vt -9.078125 -1.312500
vt -7.062500 -1.609375
vt -4.140625 -1.312500
vt -5.609375 -0.703125
vt -6.156250 -1.609375
vn 0.0000 1.0000 0.0000
usemtl Material.005
s 1
f 105/154/47 103/155/47 104/156/47
fc 102 103 104
f 105/154/47 102/157/47 103/155/47
fc 102 105 103
f 107/158/47 106/159/47 111/160/47
fc 106 107 108
f 109/161/47 108/162/47 110/163/47
fc 109 110 111
f 111/160/47 110/163/47 102/157/47
fc 108 111 105
f 111/160/47 102/157/47 107/158/47
fc 108 105 106
f 110/163/47 103/155/47 102/157/47
fc 111 103 105
f 110/163/47 108/162/47 103/155/47
fc 111 110 103
