# Blender v3.6.7 OBJ File: 'Floor_2_Jan09_Edit.blend'
# www.blender.org
mtllib Floor_2_Jan09_Edit_Room7.mtl
g Floor2#Room7
v 1600.206421 99.999954 2610.936523
v 1600.206421 99.999954 2550.936523
v 1600.206421 -0.000023 2610.936523
v 1600.206421 -0.000023 2550.936523
v 1620.206421 -0.000023 2550.936523
v 1620.206421 -0.000023 2610.936523
v 1620.206421 99.999954 2550.936523
v 1620.206421 99.999954 2610.936523
v 1620.206421 -0.000023 2344.913086
v 1620.206421 99.999954 2344.913086
v 1620.206421 -0.000023 2816.959961
v 1620.206421 99.999954 2816.959961
v 1786.230103 99.999954 2344.913086
v 1786.230103 -0.000023 2344.913086
v 1786.230103 -0.000023 2816.959961
v 1786.230103 99.999954 2816.959961
v 1620.206421 256.646667 2344.913086
v 1620.206421 256.646667 2816.959961
v 1786.230103 256.646667 2344.913086
v 1786.230103 256.646667 2816.959961
v 1620.206421 256.646667 2580.936523
v 3041.401855 99.999954 2816.959961
v 3041.401855 99.999954 2344.913086
v 3041.401855 256.646667 2816.959961
v 3041.401855 256.646667 2344.913086
v 1786.230103 -19.814293 2816.959961
v 1786.230103 -19.814293 2344.913086
v 3041.716309 -19.814293 2816.804932
v 3041.716309 -19.814293 2344.758057
v 2183.822021 354.455658 2580.947998
v 2661.694092 359.958466 2580.947998
v 3041.401855 306.962585 2580.936523
v 1786.230103 309.642548 2580.936523
v 2661.694092 256.646667 3036.461670
v 2183.822021 256.646667 3036.461426
v 2184.136475 99.999954 3036.657227
v 2661.379639 99.999954 3036.657227
v 2184.136475 99.999954 2125.238770
v 2661.379639 99.999954 2125.238770
v 2183.822021 256.646667 2125.434326
v 2661.694092 256.646667 2125.434326
v 2184.450928 -19.814278 2125.043213
v 2661.694092 -19.814278 2125.043213
v 2661.694092 -19.814278 3036.461670
v 2184.450928 -19.814278 3036.461670
v 3041.401855 233.007233 2665.276367
v 3041.401855 99.999954 2583.430420
vc 1.000000 1.000000 1.000000 1.000000
vc 1.000000 1.000000 1.000000 1.000000
vc 1.000000 1.000000 1.000000 1.000000
vc 1.000000 1.000000 1.000000 1.000000
vc 1.000000 1.000000 1.000000 1.000000
vc 1.000000 1.000000 1.000000 1.000000
vc 1.000000 1.000000 1.000000 1.000000
vc 1.000000 1.000000 1.000000 1.000000
vc 1.000000 1.000000 1.000000 1.000000
vc 1.000000 1.000000 1.000000 1.000000
vc 1.000000 1.000000 1.000000 1.000000
vc 1.000000 1.000000 1.000000 1.000000
vc 1.000000 1.000000 1.000000 1.000000
vc 1.000000 1.000000 1.000000 1.000000
vc 1.000000 1.000000 1.000000 1.000000
vc 1.000000 1.000000 1.000000 1.000000
vc 1.000000 1.000000 1.000000 1.000000
vc 1.000000 1.000000 1.000000 1.000000
vc 1.000000 1.000000 1.000000 1.000000
vc 1.000000 1.000000 1.000000 1.000000
vc 1.000000 1.000000 1.000000 1.000000
vc 1.000000 1.000000 1.000000 1.000000
vc 1.000000 1.000000 1.000000 1.000000
vc 1.000000 1.000000 1.000000 1.000000
vc 1.000000 1.000000 1.000000 1.000000
vc 1.000000 1.000000 1.000000 1.000000
vc 1.000000 1.000000 1.000000 1.000000
vc 1.000000 1.000000 1.000000 1.000000
vc 1.000000 1.000000 1.000000 1.000000
vc 1.000000 1.000000 1.000000 1.000000
vc 1.000000 1.000000 1.000000 1.000000
vc 1.000000 1.000000 1.000000 1.000000
vc 1.000000 1.000000 1.000000 1.000000
vc 1.000000 1.000000 1.000000 1.000000
vc 1.000000 1.000000 1.000000 1.000000
vc 1.000000 1.000000 1.000000 1.000000
vc 1.000000 1.000000 1.000000 1.000000
vc 1.000000 1.000000 1.000000 1.000000
vc 1.000000 1.000000 1.000000 1.000000
vc 1.000000 1.000000 1.000000 1.000000
vc 1.000000 1.000000 1.000000 1.000000
vc 1.000000 1.000000 1.000000 1.000000
vc 1.000000 1.000000 1.000000 1.000000
vc 1.000000 1.000000 1.000000 1.000000
vc 1.000000 1.000000 1.000000 1.000000
vc 1.000000 1.000000 1.000000 1.000000
vc 1.000000 1.000000 1.000000 1.000000
vt -1.796875 -1.953125
vt -0.250000 -3.781250
vt -0.234375 -1.953125
vt -1.812500 -1.015625
vt -2.468750 -1.031250
vt -2.484375 -1.953125
vt -2.468750 -2.890625
vt -1.812500 -2.906250
vt 1.609375 -1.953125
vt -0.250000 -0.140625
vt 3.125000 -2.921875
vt 3.109375 -1.953125
vt 1.625000 -0.140625
vt 3.125000 -1.000000
vt 1.625000 -3.781250
vt 1.406250 0.000000
vt -0.406250 1.000000
vt -0.406250 -0.000000
vt 3.968750 0.000000
vt 1.406250 1.000000
vt -3.000000 1.000000
vt 3.968750 1.000000
vt -3.000000 0.000000
vt 0.250000 0.406250
vt 0.250000 0.000000
vt 1.062500 0.406250
vt -0.750000 0.406250
vt -0.750000 0.000000
vt 0.062500 0.000000
vt 0.156250 1.000000
vt -0.750000 1.000000
vt -1.437500 0.000000
vt -3.562500 -0.093750
vt -2.387547 0.406250
vt -1.187500 0.406250
vt -7.593750 -0.093750
vt -6.250000 0.406250
vt -6.250000 -0.093750
vt -4.937500 -0.093750
vt -3.562500 0.406250
vt 1.750000 0.000000
vt 1.062500 1.000000
vt 0.156250 1.000000
vt -1.187500 1.000000
vt 0.156250 0.406250
vt 1.812500 1.000000
vt 0.156250 -0.093750
vt 3.156250 0.000000
vt 1.812500 -0.093750
vt 3.156250 0.406250
vt -3.562500 1.000000
vt -2.799337 0.868164
vt -2.375000 1.125000
vt -4.937500 0.406250
vt -4.937500 1.000000
vt 0.062500 0.406250
vt 1.062500 0.000000
vt -1.187500 -0.093750
vt -1.437500 0.406250
vt 1.750000 0.406250
vt 1.750000 1.000000
vt -6.250000 1.000000
vt -7.593750 0.000000
vt -7.593750 0.406250
vt 1.812500 0.406250
vt 3.156250 1.000000
vt 3.156250 -0.093750
vt -1.437500 1.000000
vt -7.593750 1.000000
vt 9.500000 7.750000
vt 9.875000 7.875000
vt 9.500000 7.875000
vt 9.875000 7.750000
vt 8.133812 8.984433
vt 11.250000 8.812500
vt 8.125000 8.812500
vt 11.250000 9.000000
vn 0.1512 -0.9885 -0.0013
vn 0.1986 -0.5819 0.7887
vn 0.0609 -0.9981 0.0007
vn 0.1893 -0.6754 -0.7128
vn 0.5981 -0.5261 -0.6046
vn 0.8075 -0.5899 0.0000
vn 0.5981 -0.5261 0.6046
vn 0.1922 -0.6737 0.7136
vn -0.0630 -0.9980 0.0003
vn 0.2009 -0.5808 -0.7889
vn -0.7240 -0.5140 0.4600
vn -0.7120 -0.7021 -0.0026
vn -0.2082 -0.5768 -0.7899
vn -0.7217 -0.5182 -0.4590
vn -0.2058 -0.5779 0.7898
vn 0.0000 -0.7071 0.7071
vn 0.9045 -0.3015 -0.3015
vn 0.0000 -0.7071 -0.7071
vn 0.0000 0.7071 0.7071
vn 0.9045 -0.3015 0.3015
vn 0.5774 0.5774 -0.5774
vn 0.5774 0.5774 0.5774
vn 0.0000 0.7071 -0.7071
vn 0.7071 0.0000 0.7071
vn 0.7071 0.0000 -0.7071
vn 0.5816 0.0000 -0.8135
vn -0.8665 -0.0016 -0.4991
vn -1.0000 -0.0013 0.0000
vn -0.8663 -0.0016 0.4996
vn 0.8612 0.0002 -0.5083
vn 0.2492 0.0008 -0.9685
vn 0.2487 0.0020 -0.9686
vn -0.2596 0.0009 -0.9657
vn -0.8660 -0.0008 -0.5001
vn 0.5816 0.0000 0.8135
vn -0.2586 -0.0014 0.9660
vn -0.2595 -0.0022 0.9657
vn 0.2491 -0.0009 0.9685
vn 0.2496 0.0000 0.9684
vn -1.0000 0.0000 0.0000
vn -0.2585 -0.0000 -0.9660
vn -0.8663 -0.0027 0.4995
vn 0.2496 0.0000 -0.9684
vn 0.2496 -0.0008 0.9683
vn 0.8612 0.0000 0.5083
usemtl Material.005
s 1
f 33/1/1 40/2/2 30/3/3
fc 1 2 3
f 20/4/4 18/5/5 33/1/1
fc 4 5 1
f 33/1/1 21/6/6 17/7/7
fc 1 6 7
f 19/8/8 33/1/1 17/7/7
fc 8 1 7
f 31/9/9 35/10/10 30/3/3
fc 9 10 3
f 31/9/9 25/11/11 32/12/12
fc 9 11 12
f 34/13/13 32/12/12 24/14/14
fc 13 12 14
f 41/15/15 30/3/3 40/2/2
fc 15 3 2
f 20/4/4 30/3/3 35/10/10
fc 4 3 10
f 18/5/5 21/6/6 33/1/1
fc 5 6 1
f 33/1/1 19/8/8 40/2/2
fc 1 8 2
f 31/9/9 34/13/13 35/10/10
fc 9 13 10
f 31/9/9 41/15/15 25/11/11
fc 9 15 11
f 34/13/13 31/9/9 32/12/12
fc 13 9 12
f 41/15/15 31/9/9 30/3/3
fc 15 9 3
f 20/4/4 33/1/1 30/3/3
fc 4 1 3
usemtl Material.017
f 2/16/16 8/17/17 1/18/18
fc 16 17 18
f 4/19/19 7/20/20 2/16/16
fc 19 20 16
f 6/21/21 1/18/18 8/17/17
fc 21 18 17
f 4/19/19 5/22/22 7/20/20
fc 19 22 20
f 6/21/21 3/23/23 1/18/18
fc 21 23 18
f 2/16/16 7/20/20 8/17/17
fc 16 20 17
usemtl _11
f 7/24/20 5/25/22 10/26/24
fc 20 22 24
f 12/27/25 11/28/25 6/29/21
fc 25 26 21
f 10/26/24 21/30/6 18/31/5
fc 24 6 5
f 12/27/25 15/32/26 11/28/25
fc 25 27 26
f 28/33/27 47/34/28 23/35/29
fc 28 29 30
f 26/36/30 36/37/31 45/38/32
fc 31 32 33
f 44/39/33 22/40/34 28/33/27
fc 34 35 28
f 10/26/24 14/41/35 17/42/7
fc 24 36 7
f 41/43/15 23/35/29 25/44/11
fc 15 30 11
f 39/45/36 40/46/2 43/47/37
fc 37 2 38
f 14/48/35 42/49/38 13/50/39
fc 36 39 40
f 24/51/14 46/52/40 22/40/34
fc 14 41 35
f 32/53/12 25/44/11 23/35/29
fc 12 11 30
f 37/54/41 45/38/32 34/55/13
fc 42 33 13
f 18/31/5 8/56/17 7/24/20
fc 5 17 20
f 10/26/24 5/25/22 9/57/24
fc 24 22 43
f 23/35/29 29/58/42 28/33/27
fc 30 44 28
f 6/29/21 8/56/17 12/27/25
fc 21 17 25
f 18/31/5 16/59/43 15/32/26
fc 5 45 27
f 17/42/7 13/60/39 19/61/8
fc 7 40 8
f 32/53/12 23/35/29 47/34/28
fc 12 30 29
f 35/62/10 15/63/26 16/64/43
fc 10 27 45
f 34/55/13 36/37/31 35/62/10
fc 13 32 10
f 24/51/14 37/54/41 34/55/13
fc 14 42 13
f 29/58/42 39/45/36 43/47/37
fc 44 37 38
f 43/47/37 38/65/44 42/49/38
fc 38 46 39
f 19/66/8 38/65/44 40/46/2
fc 8 46 2
f 10/26/24 17/42/7 21/30/6
fc 24 7 6
f 12/27/25 18/31/5 15/32/26
fc 25 5 27
f 28/33/27 22/40/34 47/34/28
fc 28 35 29
f 26/36/30 35/62/10 36/37/31
fc 31 10 32
f 44/39/33 24/51/14 22/40/34
fc 34 14 35
f 10/26/24 9/57/24 14/41/35
fc 24 43 36
f 41/43/15 29/58/42 23/35/29
fc 15 44 30
f 39/45/36 41/43/15 40/46/2
fc 37 15 2
f 14/48/35 27/67/45 42/49/38
fc 36 47 39
f 42/49/38 19/66/8 13/50/39
fc 39 8 40
f 24/51/14 32/53/12 46/52/40
fc 14 12 41
f 37/54/41 44/39/33 45/38/32
fc 42 34 33
f 18/31/5 12/27/25 8/56/17
fc 5 25 17
f 7/24/20 10/26/24 18/31/5
fc 20 24 5
f 18/31/5 20/68/4 16/59/43
fc 5 4 45
f 17/42/7 14/41/35 13/60/39
fc 7 36 40
f 47/34/28 22/40/34 46/52/40
fc 29 35 41
f 46/52/40 32/53/12 47/34/28
fc 41 12 29
f 35/62/10 26/36/30 15/63/26
fc 10 31 27
f 16/64/43 20/69/4 35/62/10
fc 45 4 10
f 34/55/13 45/38/32 36/37/31
fc 13 33 32
f 24/51/14 44/39/33 37/54/41
fc 14 34 42
f 29/58/42 41/43/15 39/45/36
fc 44 15 37
f 43/47/37 40/46/2 38/65/44
fc 38 2 46
f 19/66/8 42/49/38 38/65/44
fc 8 39 46
usemtl Material.025
f 4/70/19 6/71/21 5/72/22
fc 19 21 22
f 4/70/19 3/73/23 6/71/21
fc 19 23 21
f 14/74/35 26/75/30 27/76/45
fc 36 31 47
f 14/74/35 15/77/26 26/75/30
fc 36 27 31
g Floor2#Room7#Stone
v 1620.206421 -0.000023 2550.936523
v 1620.206421 -0.000023 2610.936523
v 1620.206421 -0.000023 2344.913086
v 1620.206421 -0.000023 2816.959961
v 1786.230103 -0.000023 2344.913086
v 1786.230103 -0.000023 2816.959961
vc 1.000000 1.000000 1.000000 1.000000
vc 1.000000 1.000000 1.000000 1.000000
vc 1.000000 1.000000 1.000000 1.000000
vc 1.000000 1.000000 1.000000 1.000000
vc 1.000000 1.000000 1.000000 1.000000
vc 1.000000 1.000000 1.000000 1.000000
vt 11.258810 8.984432
vt 8.125000 8.984433
vt 11.250000 7.875000
vt 9.500000 7.875000
vt 9.875000 7.875000
vt 8.125000 7.875000
vn 0.0000 1.0000 0.0000
usemtl Material.025
s 1
f 53/78/46 52/79/46 51/80/46
fc 48 49 50
f 52/79/46 48/81/46 49/82/46
fc 49 51 52
f 49/82/46 51/80/46 52/79/46
fc 52 50 49
f 52/79/46 50/83/46 48/81/46
fc 49 53 51
g Floor2#Room7#Snow
v 1786.230103 -19.814293 2816.959961
v 1786.230103 -19.814293 2344.913086
v 3041.716309 -19.814293 2816.804932
v 3041.716309 -19.814293 2344.758057
v 2184.450928 -19.814278 2125.043213
v 2661.694092 -19.814278 2125.043213
v 2661.694092 -19.814278 3036.461670
v 2184.450928 -19.814278 3036.461670
vc 1.000000 1.000000 1.000000 1.000000
vc 1.000000 1.000000 1.000000 1.000000
vc 1.000000 1.000000 1.000000 1.000000
vc 1.000000 1.000000 1.000000 1.000000
vc 1.000000 1.000000 1.000000 1.000000
vc 1.000000 1.000000 1.000000 1.000000
vc 1.000000 1.000000 1.000000 1.000000
vc 1.000000 1.000000 1.000000 1.000000
vt -1.609375 -0.125000
vt 1.093750 1.421875
vt -2.484375 1.421875
vt -2.484375 3.296875
vt 0.234375 4.781250
vt -1.609375 4.781250
vt 1.093750 3.296875
vt 0.234375 -0.125000
vn -0.0000 1.0000 0.0000
usemtl Material.005
s 1
f 55/84/47 61/85/47 58/86/47
fc 54 55 56
f 59/87/47 56/88/47 57/89/47
fc 57 58 59
f 60/90/47 58/86/47 61/85/47
fc 60 56 55
f 55/84/47 54/91/47 61/85/47
fc 54 61 55
f 59/87/47 60/90/47 56/88/47
fc 57 60 58
f 60/90/47 59/87/47 58/86/47
fc 60 57 56
