# Blender v3.6.7 OBJ File: 'Floor_2_Jan09_Edit.blend'
# www.blender.org
mtllib Floor_2_Jan09_Edit_RoomC.mtl
g Floor2#RoomC#Stone
v 281.471832 299.764160 1125.094849
v 221.471832 299.764160 1125.094849
v 221.471832 299.764160 1105.094849
v 281.471832 299.764160 1105.094849
v -66.325821 299.764160 1105.094849
v 569.269531 299.764160 1105.094849
v 569.269531 299.764160 469.499512
v -66.325821 299.764160 469.499512
vc 1.000000 1.000000 1.000000 1.000000
vc 1.000000 1.000000 1.000000 1.000000
vc 1.000000 1.000000 1.000000 1.000000
vc 1.000000 1.000000 1.000000 1.000000
vc 1.000000 1.000000 1.000000 1.000000
vc 1.000000 1.000000 1.000000 1.000000
vc 1.000000 1.000000 1.000000 1.000000
vc 1.000000 1.000000 1.000000 1.000000
vt -0.625000 0.156250
vt -0.718750 0.468750
vt -0.718750 0.156250
vt -0.718750 0.093750
vt -4.000000 1.968750
vt -4.000000 -1.500000
vt -0.718750 0.406250
vt -0.718744 1.967694
vt -0.718750 -1.500000
vt -0.625000 0.468750
vn 0.0000 1.0000 0.0000
usemtl Material.025
s 1
f 2/1/1 4/2/1 3/3/1
fc 1 2 3
f 3/4/1 7/5/1 8/6/1
fc 3 4 5
f 7/5/1 4/7/1 6/8/1
fc 4 2 6
f 3/4/1 8/6/1 5/9/1
fc 3 5 7
f 2/1/1 1/10/1 4/2/1
fc 1 8 2
f 3/4/1 4/7/1 7/5/1
fc 3 2 4
g Floor2#RoomC
v 281.471832 399.764099 1125.094849
v 221.471832 399.764099 1125.094849
v 281.471832 299.764160 1125.094849
v 221.471832 299.764160 1125.094849
v 221.471832 299.764160 1105.094849
v 281.471832 299.764160 1105.094849
v 221.471832 399.764099 1105.094849
v 281.471832 399.764099 1105.094849
v -66.325806 299.764160 1105.094849
v 569.269531 299.764160 1105.094849
v -66.325806 556.327271 1105.094849
v 569.269531 556.327271 1105.094849
v 569.269531 556.327271 469.499512
v 569.269531 299.764160 469.499512
v -66.325806 299.764160 469.499512
v -66.325806 556.327271 469.499512
v 496.601227 299.764160 469.499512
v 496.601227 556.327271 469.499512
v 496.601227 556.327271 542.167847
v 496.601227 299.764160 542.167847
v 569.269531 299.764160 542.167847
v 569.269531 556.327271 542.167847
v 496.601227 428.045715 469.499512
v 569.269531 428.045715 542.167847
v 496.601227 428.045715 542.167847
v -66.325806 299.764160 542.167908
v -66.325806 556.327271 542.167908
v 6.342529 556.327271 542.167847
v 6.342529 299.764160 542.167847
v 6.342529 299.764160 469.499603
v 6.342529 556.327271 469.499603
v -66.325806 428.045715 542.167908
v 6.342529 428.045715 469.499603
v 6.342529 428.045715 542.167847
v 6.342560 299.764160 1105.094971
v 6.342560 556.327271 1105.094971
v 6.342560 556.327271 1032.426636
v 6.342560 299.764160 1032.426636
v -66.325714 299.764160 1032.426636
v -66.325714 556.327271 1032.426636
v 6.342560 428.045715 1105.094971
v -66.325714 428.045715 1032.426636
v 6.342560 428.045715 1032.426636
v 569.269653 299.764160 1032.426514
v 569.269653 556.327271 1032.426514
v 496.601288 556.327271 1032.426636
v 496.601288 299.764160 1032.426636
v 496.601288 299.764160 1105.094849
v 496.601288 556.327271 1105.094849
v 569.269653 428.045715 1032.426514
v 496.601288 428.045715 1105.094849
v 496.601288 428.045715 1032.426636
vc 1.000000 1.000000 1.000000 1.000000
vc 1.000000 1.000000 1.000000 1.000000
vc 1.000000 1.000000 1.000000 1.000000
vc 1.000000 1.000000 1.000000 1.000000
vc 1.000000 1.000000 1.000000 1.000000
vc 1.000000 1.000000 1.000000 1.000000
vc 1.000000 1.000000 1.000000 1.000000
vc 1.000000 1.000000 1.000000 1.000000
vc 1.000000 1.000000 1.000000 1.000000
vc 1.000000 1.000000 1.000000 1.000000
vc 1.000000 1.000000 1.000000 1.000000
vc 1.000000 1.000000 1.000000 1.000000
vc 1.000000 1.000000 1.000000 1.000000
vc 1.000000 1.000000 1.000000 1.000000
vc 1.000000 1.000000 1.000000 1.000000
vc 1.000000 1.000000 1.000000 1.000000
vc 1.000000 1.000000 1.000000 1.000000
vc 1.000000 1.000000 1.000000 1.000000
vc 1.000000 1.000000 1.000000 1.000000
vc 1.000000 1.000000 1.000000 1.000000
vc 1.000000 1.000000 1.000000 1.000000
vc 1.000000 1.000000 1.000000 1.000000
vc 1.000000 1.000000 1.000000 1.000000
vc 1.000000 1.000000 1.000000 1.000000
vc 1.000000 1.000000 1.000000 1.000000
vc 1.000000 1.000000 1.000000 1.000000
vc 1.000000 1.000000 1.000000 1.000000
vc 1.000000 1.000000 1.000000 1.000000
vc 1.000000 1.000000 1.000000 1.000000
vc 1.000000 1.000000 1.000000 1.000000
vc 1.000000 1.000000 1.000000 1.000000
vc 1.000000 1.000000 1.000000 1.000000
vc 1.000000 1.000000 1.000000 1.000000
vc 1.000000 1.000000 1.000000 1.000000
vc 1.000000 1.000000 1.000000 1.000000
vc 1.000000 1.000000 1.000000 1.000000
vc 1.000000 1.000000 1.000000 1.000000
vc 1.000000 1.000000 1.000000 1.000000
vc 1.000000 1.000000 1.000000 1.000000
vc 1.000000 1.000000 1.000000 1.000000
vc 1.000000 1.000000 1.000000 1.000000
vc 1.000000 1.000000 1.000000 1.000000
vc 1.000000 1.000000 1.000000 1.000000
vc 1.000000 1.000000 1.000000 1.000000
vc 1.000000 1.000000 1.000000 1.000000
vc 1.000000 1.000000 1.000000 1.000000
vc 1.000000 1.000000 1.000000 1.000000
vc 1.000000 1.000000 1.000000 1.000000
vc 1.000000 1.000000 1.000000 1.000000
vc 1.000000 1.000000 1.000000 1.000000
vc 1.000000 1.000000 1.000000 1.000000
vc 1.000000 1.000000 1.000000 1.000000
vt 0.484375 0.406250
vt -0.640625 0.000000
vt 0.484375 0.000000
vt 0.718750 0.406250
vt 1.828125 0.000000
vt 1.828125 1.000000
vt 1.828125 1.000000
vt 1.828125 0.000000
vt -0.640625 1.015625
vt -0.640625 0.000000
vt -0.640625 1.015625
vt 0.718750 0.000000
vt 1.406250 1.000000
vt -0.406250 -0.000000
vt 1.406250 0.000000
vt 3.968750 1.000000
vt 3.968750 0.000000
vt -3.000000 0.000000
vt -0.406250 1.000000
vt -3.000000 1.000000
vt -0.718750 1.968750
vt -4.000000 -1.500000
vt -0.718750 -1.500000
vt -4.000000 1.968750
vt 1.000000 1.000000
vt -0.000000 0.000000
vt 1.000000 0.000000
vt -0.000000 1.000000
vt -0.000000 0.000000
vt 1.000000 1.000000
vt -0.000000 1.000000
vt -0.000000 1.000000
vt 1.000000 1.000000
vt -0.000000 0.000000
vt 1.000000 0.000000
vt -0.000000 1.000000
vt -0.000000 0.000000
vt 1.000000 1.000000
vt -0.000000 1.000000
vt -0.000000 1.000000
vt 1.000000 1.000000
vt -0.000000 0.000000
vt 1.000000 0.000000
vt -0.000000 1.000000
vt -0.000000 0.000000
vt 1.000000 1.000000
vt -0.000000 1.000000
vt -0.000000 1.000000
vt 1.000000 1.000000
vt -0.000000 0.000000
vt 1.000000 0.000000
vt -0.000000 1.000000
vt -0.000000 0.000000
vt 1.000000 1.000000
vt -0.000000 1.000000
vt -0.000000 1.000000
vt -0.000000 1.000000
vt -0.000000 1.000000
vt -0.000000 1.000000
vt -0.000000 1.000000
vn -0.3015 -0.3015 -0.9045
vn -0.7071 0.0000 -0.7071
vn 0.3015 -0.3015 -0.9045
vn 0.7071 0.0000 -0.7071
vn 0.5774 -0.5774 -0.5774
vn -0.5774 -0.5774 0.5774
vn -0.7071 0.0000 0.7071
vn 0.5774 -0.5774 0.5774
vn 0.7071 0.0000 0.7071
vn -0.5774 -0.5774 -0.5774
vn -0.7071 -0.7071 0.0000
vn 0.7071 -0.7071 0.0000
vn 1.0000 0.0000 0.0000
vn -1.0000 0.0000 0.0000
vn 0.0000 0.0000 1.0000
vn 0.0000 0.0000 -1.0000
usemtl Material.132
s 1
f 16/11/2 18/12/3 14/13/3
fc 9 10 11
f 15/14/4 17/15/5 19/16/6
fc 12 13 14
f 19/16/6 16/11/2 15/14/4
fc 14 9 12
f 18/12/3 21/17/7 22/18/8
fc 10 15 16
f 24/19/9 17/15/5 23/20/10
fc 17 13 18
f 22/18/8 24/19/9 23/20/10
fc 16 17 18
f 16/11/2 20/21/11 18/12/3
fc 9 19 10
f 15/14/4 13/22/5 17/15/5
fc 12 20 13
f 19/16/6 20/21/11 16/11/2
fc 14 19 9
f 18/12/3 20/21/11 21/17/7
fc 10 19 15
f 24/19/9 19/16/6 17/15/5
fc 17 14 13
f 22/18/8 21/17/7 24/19/9
fc 16 15 17
usemtl Material.136
f 15/23/4 9/24/12 10/25/13
fc 12 21 22
f 13/26/5 10/25/13 12/27/14
fc 20 22 23
f 11/28/15 16/29/2 14/30/3
fc 24 9 11
f 15/23/4 16/29/2 9/24/12
fc 12 9 21
f 13/26/5 15/23/4 10/25/13
fc 20 12 22
f 11/28/15 9/24/12 16/29/2
fc 24 21 9
usemtl Material.138
f 19/31/6 21/32/7 20/33/11
fc 14 15 19
f 19/31/6 24/34/9 21/32/7
fc 14 17 15
usemtl Material.139
f 27/35/8 31/36/15 33/37/8
fc 25 26 27
f 30/38/16 33/37/8 32/39/16
fc 28 27 29
f 32/39/16 28/40/8 29/41/16
fc 29 30 31
f 33/37/8 25/42/15 28/40/8
fc 27 32 30
f 36/43/10 40/44/16 42/45/10
fc 33 34 35
f 39/46/14 42/45/10 41/47/14
fc 36 35 37
f 41/47/14 37/48/10 38/49/14
fc 37 38 39
f 42/45/10 34/50/16 37/48/10
fc 35 40 38
f 45/51/5 49/52/14 51/53/5
fc 41 42 43
f 48/54/17 51/53/5 50/55/17
fc 44 43 45
f 50/55/17 46/56/5 47/57/17
fc 45 46 47
f 51/53/5 43/58/14 46/56/5
fc 43 48 46
f 54/59/3 58/60/17 60/61/3
fc 49 50 51
f 57/62/15 60/61/3 59/63/15
fc 52 51 53
f 59/63/15 55/64/3 56/65/15
fc 53 54 55
f 60/61/3 52/66/17 55/64/3
fc 51 56 54
f 27/35/8 26/67/15 31/36/15
fc 25 57 26
f 30/38/16 27/35/8 33/37/8
fc 28 25 27
f 32/39/16 33/37/8 28/40/8
fc 29 27 30
f 33/37/8 31/36/15 25/42/15
fc 27 26 32
f 36/43/10 35/68/16 40/44/16
fc 33 58 34
f 39/46/14 36/43/10 42/45/10
fc 36 33 35
f 41/47/14 42/45/10 37/48/10
fc 37 35 38
f 42/45/10 40/44/16 34/50/16
fc 35 34 40
f 45/51/5 44/69/14 49/52/14
fc 41 59 42
f 48/54/17 45/51/5 51/53/5
fc 44 41 43
f 50/55/17 51/53/5 46/56/5
fc 45 43 46
f 51/53/5 49/52/14 43/58/14
fc 43 42 48
f 54/59/3 53/70/17 58/60/17
fc 49 60 50
f 57/62/15 54/59/3 60/61/3
fc 52 49 51
f 59/63/15 60/61/3 55/64/3
fc 53 51 54
f 60/61/3 58/60/17 52/66/17
fc 51 50 56
g Floor2#RoomC#Generic#NoCull
v 38.023361 556.327271 797.442932
v 64.152023 556.327271 780.421936
v 64.152023 490.186462 780.421936
v 38.023361 490.186462 797.442932
v 107.990570 556.327271 614.813110
v 135.839539 556.327271 628.843628
v 135.839539 490.186462 628.843628
v 107.990570 490.186462 614.813110
v 433.348175 556.327271 864.204285
v 451.421417 556.327271 889.616394
v 451.421417 490.186462 889.616394
v 433.348175 490.186462 864.204285
v 420.621429 556.327271 626.588623
v 451.771759 556.327271 628.030640
v 451.771759 490.186462 628.030640
v 420.621429 490.186462 626.588623
v 98.877838 556.327271 941.656494
v 106.532562 556.327271 911.426880
v 106.532562 490.186462 911.426880
v 98.877838 490.186462 941.656494
vc 1.000000 1.000000 1.000000 1.000000
vc 1.000000 1.000000 1.000000 1.000000
vc 1.000000 1.000000 1.000000 1.000000
vc 1.000000 1.000000 1.000000 1.000000
vc 1.000000 1.000000 1.000000 1.000000
vc 1.000000 1.000000 1.000000 1.000000
vc 1.000000 1.000000 1.000000 1.000000
vc 1.000000 1.000000 1.000000 1.000000
vc 1.000000 1.000000 1.000000 1.000000
vc 1.000000 1.000000 1.000000 1.000000
vc 1.000000 1.000000 1.000000 1.000000
vc 1.000000 1.000000 1.000000 1.000000
vc 1.000000 1.000000 1.000000 1.000000
vc 1.000000 1.000000 1.000000 1.000000
vc 1.000000 1.000000 1.000000 1.000000
vc 1.000000 1.000000 1.000000 1.000000
vc 1.000000 1.000000 1.000000 1.000000
vc 1.000000 1.000000 1.000000 1.000000
vc 1.000000 1.000000 1.000000 1.000000
vc 1.000000 1.000000 1.000000 1.000000
vt -0.000000 1.000000
vt 1.000000 0.000000
vt -0.000000 0.000000
vt -0.000000 1.000000
vt 1.000000 0.000000
vt -0.000000 0.000000
vt -0.000000 1.000000
vt 1.000000 0.000000
vt -0.000000 0.000000
vt -0.000000 1.000000
vt 1.000000 0.000000
vt -0.000000 0.000000
vt -0.000000 1.000000
vt 1.000000 0.000000
vt -0.000000 0.000000
vt 1.000000 1.000000
vt 1.000000 1.000000
vt 1.000000 1.000000
vt 1.000000 1.000000
vt 1.000000 1.000000
vn 0.5458 0.0000 0.8379
vn -0.4499 0.0000 0.8931
vn -0.8149 0.0000 0.5796
vn -0.0462 0.0000 0.9989
vn 0.9694 0.0000 0.2455
usemtl Material.141
s 1
f 62/71/18 64/72/18 63/73/18
fc 61 62 63
f 66/74/19 68/75/19 67/76/19
fc 64 65 66
f 70/77/20 72/78/20 71/79/20
fc 67 68 69
f 74/80/21 76/81/21 75/82/21
fc 70 71 72
f 78/83/22 80/84/22 79/85/22
fc 73 74 75
f 62/71/18 61/86/18 64/72/18
fc 61 76 62
f 66/74/19 65/87/19 68/75/19
fc 64 77 65
f 70/77/20 69/88/20 72/78/20
fc 67 78 68
f 74/80/21 73/89/21 76/81/21
fc 70 79 71
f 78/83/22 77/90/22 80/84/22
fc 73 80 74
