g 0x13D0
v -0.018555 -0.002930 0.004883
vn -0.740157 -0.157480 0.559055
vt 0.044922 -0.553711
v -0.017578 -0.000977 0.006836
vn -0.708661 -0.086614 0.614173
vt 0.064453 -0.511719
v -0.018555 0.004883 0.004883
vn -0.692913 0.125984 0.629921
vt 0.045898 -0.424805
f 1/1/1 2/2/2 3/3/3
v -0.017578 -0.000977 0.006836
vn -0.708661 -0.086614 0.614173
vt 0.064453 -0.511719
v -0.016602 0.002930 0.007813
vn -0.598425 0.141732 0.708661
vt 0.075195 -0.453125
v -0.018555 0.004883 0.004883
vn -0.692913 0.125984 0.629921
vt 0.045898 -0.424805
v 0.017578 -0.000977 0.006836
vn 0.708661 -0.086614 0.614173
vt 0.435547 -0.511719
v 0.018555 0.004883 0.004883
vn 0.692913 0.125984 0.629921
vt 0.454102 -0.424805
v 0.016602 0.002930 0.007813
vn 0.598425 0.141732 0.708661
vt 0.424805 -0.453125
v 0.018555 -0.002930 0.004883
vn 0.740157 -0.157480 0.559055
vt 0.455078 -0.553711
v 0.002930 -0.013672 0.010742
vn 0.000000 -0.370079 0.866142
vt 0.294922 -0.771484
v 0.007813 -0.011719 0.011719
vn 0.196850 -0.047244 0.921260
vt 0.337891 -0.726563
v 0.000000 -0.010742 0.012695
vn 0.000000 -0.102362 0.937008
vt 0.250000 -0.725586
v 0.008789 -0.007813 0.010742
vn 0.377953 -0.015748 0.858268
vt 0.356445 -0.661133
v -0.020508 0.018555 0.000000
vn -0.433071 0.503937 0.669291
vt 0.000977 -0.269531
v -0.010742 0.009766 0.009766
vn -0.433071 0.251969 0.795276
vt 0.125000 -0.310547
v -0.005859 0.011719 0.010742
vn -0.181102 0.354331 0.850394
vt 0.178711 -0.262695
v -0.008789 -0.007813 0.010742
vn -0.377953 -0.015748 0.858268
vt 0.143555 -0.661133
v -0.007813 -0.011719 0.011719
vn -0.196850 -0.047244 0.921260
vt 0.162109 -0.726563
v -0.018555 -0.002930 0.004883
vn -0.740157 -0.157480 0.559055
vt 0.044922 -0.553711
v 0.008789 -0.021484 0.004883
vn 0.598425 -0.559055 0.464567
vt 0.413086 -0.858398
v 0.014648 -0.018555 -0.004883
vn 0.763780 -0.456693 0.307087
vt 0.542969 -0.783203
v 0.006836 -0.027344 -0.003906
vn 0.629921 -0.629921 0.314961
vt 0.567383 -0.910156
v 0.000000 -0.030273 0.002930
vn 0.000000 -0.661417 0.669291
vt 0.250000 -0.968750
v 0.000000 -0.027344 0.004883
vn 0.000000 -0.472441 0.811024
vt 0.250000 -0.941406
v -0.008789 -0.021484 0.004883
vn -0.598425 -0.559055 0.464567
vt 0.086914 -0.858398
v -0.006836 -0.027344 -0.003906
vn -0.629921 -0.629921 0.314961
vt -0.067383 -0.910156
v -0.014648 -0.018555 -0.004883
vn -0.763780 -0.456693 0.307087
vt -0.042969 -0.783203
v -0.029297 0.006836 -0.012695
vn -0.834646 -0.228346 0.377953
vt -0.064453 -0.429688
v 0.029297 0.006836 -0.012695
vn 0.834646 -0.228346 0.377953
vt 0.564453 -0.429688
v 0.020508 0.018555 0.000000
vn 0.433071 0.503937 0.669291
vt 0.499023 -0.269531
v 0.030273 0.026367 -0.009766
vn 0.629921 0.236220 0.661417
vt 0.550781 -0.279297
v -0.030273 0.026367 -0.009766
vn -0.629921 0.236220 0.661417
vt -0.050781 -0.279297
v 0.000000 0.030273 0.004883
vn 0.000000 0.803150 0.496063
vt 0.250000 -0.048828
v 0.000000 0.029297 -0.011719
vn 0.000000 0.889764 0.307087
vt -0.250000 -0.121094
f 4/4/4 5/5/5 6/6/6
f 7/7/7 8/8/8 9/9/9
f 7/7/7 10/10/10 8/8/8
f 11/11/11 12/12/12 13/13/13
f 13/13/13 12/12/12 14/14/14
f 12/12/12 10/10/10 14/14/14
f 14/14/14 10/10/10 7/7/7
f 15/15/15 16/16/16 17/17/17
f 18/18/18 19/19/19 13/13/13
f 20/20/20 19/19/19 18/18/18
f 18/18/18 4/4/4 20/20/20
f 21/21/21 22/22/22 10/10/10
f 21/21/21 23/23/23 22/22/22
f 24/24/24 21/21/21 25/25/25
f 21/21/21 24/24/24 23/23/23
f 25/25/25 26/26/26 24/24/24
f 27/27/27 24/24/24 26/26/26
f 26/26/26 28/28/28 27/27/27
f 20/20/20 28/28/28 26/26/26
f 20/20/20 29/29/29 28/28/28
f 10/10/10 22/22/22 30/30/30
f 31/31/31 8/8/8 32/32/32
f 33/33/33 6/6/6 15/15/15
f 34/34/34 35/35/35 15/15/15
f 33/33/33 15/15/15 35/35/35
v 0.000000 0.029297 -0.011719
vn 0.000000 0.889764 0.307087
vt 0.750000 -0.121094
v 0.000000 0.030273 0.004883
vn 0.000000 0.803150 0.496063
vt 0.250000 -0.048828
v 0.020508 0.018555 0.000000
vn 0.433071 0.503937 0.669291
vt 0.499023 -0.269531
v 0.030273 0.026367 -0.009766
vn 0.629921 0.236220 0.661417
vt 0.550781 -0.279297
v 0.010742 0.009766 0.009766
vn 0.433071 0.251969 0.795276
vt 0.375000 -0.310547
v 0.007813 0.006836 0.011719
vn 0.267717 0.181102 0.881890
vt 0.342773 -0.361328
v 0.013672 0.002930 0.009766
vn 0.401575 0.078740 0.850394
vt 0.399414 -0.451172
v -0.010742 0.009766 0.009766
vn -0.433071 0.251969 0.795276
vt 0.125000 -0.310547
v -0.013672 0.002930 0.009766
vn -0.401575 0.078740 0.850394
vt 0.100586 -0.451172
v -0.007813 0.006836 0.011719
vn -0.267717 0.181102 0.881890
vt 0.157227 -0.361328
v -0.005859 0.011719 0.010742
vn -0.181102 0.354331 0.850394
vt 0.178711 -0.262695
v 0.005859 0.011719 0.010742
vn 0.181102 0.354331 0.850394
vt 0.321289 -0.262695
v 0.000000 0.008789 0.012695
vn 0.000000 0.267717 0.905512
vt 0.250000 -0.297852
v 0.000000 0.026367 0.005859
vn 0.000000 0.377953 0.858268
vt 0.250000 -0.078125
v -0.020508 0.018555 0.000000
vn -0.433071 0.503937 0.669291
vt 0.000977 -0.269531
v -0.007813 -0.011719 0.011719
vn -0.196850 -0.047244 0.921260
vt 0.162109 -0.726563
v -0.002930 -0.013672 0.010742
vn 0.000000 -0.370079 0.866142
vt 0.205078 -0.771484
v 0.000000 -0.010742 0.012695
vn 0.000000 -0.102362 0.937008
vt 0.250000 -0.725586
v -0.018555 -0.002930 0.004883
vn -0.740157 -0.157480 0.559055
vt 0.044922 -0.553711
v -0.030273 0.026367 -0.009766
vn -0.629921 0.236220 0.661417
vt -0.050781 -0.279297
v -0.029297 0.006836 -0.012695
vn -0.834646 -0.228346 0.377953
vt -0.064453 -0.429688
v -0.018555 0.004883 0.004883
vn -0.692913 0.125984 0.629921
vt 0.045898 -0.424805
v 0.018555 -0.002930 0.004883
vn 0.740157 -0.157480 0.559055
vt 0.455078 -0.553711
v 0.018555 0.004883 0.004883
vn 0.692913 0.125984 0.629921
vt 0.454102 -0.424805
v 0.029297 0.006836 -0.012695
vn 0.834646 -0.228346 0.377953
vt 0.564453 -0.429688
v -0.016602 0.002930 0.007813
vn -0.598425 0.141732 0.708661
vt 0.075195 -0.453125
v 0.016602 0.002930 0.007813
vn 0.598425 0.141732 0.708661
vt 0.424805 -0.453125
f 36/36/36 37/37/37 38/38/38
f 38/38/38 39/39/39 36/36/36
f 40/40/40 41/41/41 42/42/42
f 43/43/43 44/44/44 45/45/45
f 46/46/46 43/43/43 45/45/45
f 41/41/41 40/40/40 47/47/47
f 46/46/46 48/48/48 47/47/47
f 46/46/46 45/45/45 48/48/48
f 48/48/48 41/41/41 47/47/47
f 38/38/38 37/37/37 49/49/49
f 50/50/50 49/49/49 37/37/37
f 49/49/49 47/47/47 38/38/38
f 38/38/38 47/47/47 40/40/40
f 49/49/49 50/50/50 46/46/46
f 51/51/51 52/52/52 53/53/53
f 54/54/54 55/55/55 56/56/56
f 54/54/54 57/57/57 55/55/55
f 58/58/58 39/39/39 59/59/59
f 58/58/58 60/60/60 39/39/39
f 61/61/61 43/43/43 57/57/57
f 44/44/44 43/43/43 61/61/61
f 62/62/62 40/40/40 42/42/42
f 62/62/62 59/59/59 40/40/40
v 0.010742 0.009766 0.009766
vn 0.566929 0.196850 0.724409
vt 0.375000 -0.310547
v 0.018555 0.004883 0.004883
vn 0.566929 0.196850 0.724409
vt 0.454102 -0.424805
v 0.020508 0.018555 0.000000
vn 0.566929 0.196850 0.724409
vt 0.499023 -0.269531
v -0.005859 0.011719 0.010742
vn 0.000000 0.299213 0.889764
vt 0.178711 -0.262695
v 0.005859 0.011719 0.010742
vn 0.000000 0.299213 0.889764
vt 0.321289 -0.262695
v 0.000000 0.026367 0.005859
vn 0.000000 0.299213 0.889764
vt 0.250000 -0.078125
v -0.018555 0.004883 0.004883
vn -0.566929 0.196850 0.724409
vt 0.045898 -0.424805
v -0.010742 0.009766 0.009766
vn -0.566929 0.196850 0.724409
vt 0.125000 -0.310547
v -0.020508 0.018555 0.000000
vn -0.566929 0.196850 0.724409
vt 0.000977 -0.269531
v -0.008789 -0.007813 0.010742
vn -0.480315 -0.370079 0.716535
vt -0.004883 -0.714844
v -0.006836 -0.006836 0.012695
vn -0.393701 -0.448819 0.724409
vt 0.037109 -0.710938
v -0.013672 0.000000 0.009766
vn -0.464567 -0.062992 0.818898
vt -0.012695 -0.479492
v -0.008789 -0.007813 0.010742
vn -0.480315 -0.370079 0.716535
vt 0.995117 -0.714844
v -0.013672 0.000000 0.009766
vn -0.464567 -0.062992 0.818898
vt 0.987305 -0.479492
v -0.017578 -0.000977 0.006836
vn -0.519685 -0.165354 0.763780
vt 0.964844 -0.499023
v -0.003906 0.003906 0.014648
vn -0.503937 0.346457 0.716535
vt 0.106445 -0.281250
v 0.000000 0.006836 0.014648
vn 0.000000 0.637795 0.692913
vt 0.250000 -0.157227
v 0.000000 0.008789 0.012695
vn 0.000000 0.448819 0.826772
vt 0.250000 -0.040039
v -0.006836 0.004883 0.011719
vn -0.346457 0.204724 0.850394
vt 0.028320 -0.259766
v -0.007813 0.006836 0.011719
vn -0.275591 0.078740 0.897638
vt 0.016602 -0.259766
v 0.006836 -0.006836 0.012695
vn 0.393701 -0.448819 0.724409
vt 0.462891 -0.710938
v 0.000000 -0.008789 0.013672
vn 0.000000 -0.480315 0.811024
vt 0.250000 -0.908203
v 0.000000 -0.010742 0.012695
vn 0.000000 -0.157480 0.929134
vt 0.250000 -0.958008
v 0.008789 -0.007813 0.010742
vn 0.480315 -0.370079 0.716535
vt 0.504883 -0.714844
v 0.017578 -0.000977 0.006836
vn 0.519685 -0.165354 0.763780
vt 0.535156 -0.499023
v 0.013672 0.000000 0.009766
vn 0.464567 -0.062992 0.818898
vt 0.512695 -0.479492
v -0.013672 0.002930 0.009766
vn -0.409449 0.157480 0.834646
vt -0.017578 -0.422852
v 0.003906 -0.005859 0.011719
vn 0.291339 -0.574803 0.685039
vt 0.452148 -0.793945
v 0.007813 0.000000 0.011719
vn 0.590551 -0.110236 0.724409
vt 0.475586 -0.485352
v 0.002930 -0.003906 0.014648
vn 0.291339 -0.559055 0.700787
vt 0.357422 -0.726563
v 0.004883 0.000000 0.014648
vn 0.566929 -0.110236 0.748031
vt 0.403320 -0.467773
v 0.003906 0.003906 0.014648
vn 0.503937 0.346457 0.716535
vt 0.393555 -0.281250
f 63/63/63 64/64/64 65/65/65
f 66/66/66 67/67/67 68/68/68
f 69/69/69 70/70/70 71/71/71
f 72/72/72 73/73/73 74/74/74
f 75/75/75 76/76/76 77/77/77
f 78/78/78 79/79/79 80/80/80
f 78/78/78 80/80/80 81/81/81
f 81/81/81 80/80/80 82/82/82
f 83/83/83 84/84/84 85/85/85
f 86/86/86 87/87/87 88/88/88
f 74/74/74 81/81/81 82/82/82
f 85/85/85 86/86/86 83/83/83
f 88/88/88 83/83/83 86/86/86
f 82/82/82 89/89/89 74/74/74
f 90/90/90 91/91/91 92/92/92
f 92/92/92 91/91/91 93/93/93
f 93/93/93 91/91/91 94/94/94
v 0.007813 0.000000 0.011719
vn 0.590551 -0.110236 0.724409
vt 0.475586 -0.485352
v 0.006836 0.004883 0.011719
vn 0.346457 0.204724 0.850394
vt 0.471680 -0.259766
v 0.003906 0.003906 0.014648
vn 0.503937 0.346457 0.716535
vt 0.393555 -0.281250
v -0.003906 0.003906 0.014648
vn -0.503937 0.346457 0.716535
vt 0.106445 -0.281250
v -0.006836 0.004883 0.011719
vn -0.346457 0.204724 0.850394
vt 0.028320 -0.259766
v -0.007813 0.000000 0.011719
vn -0.590551 -0.110236 0.724409
vt 0.024414 -0.485352
v -0.004883 0.000000 0.014648
vn -0.566929 -0.110236 0.748031
vt 0.096680 -0.467773
v -0.002930 -0.003906 0.014648
vn -0.377953 -0.488189 0.708661
vt 0.142578 -0.726563
v -0.003906 -0.005859 0.011719
vn -0.196850 -0.629921 0.669291
vt 0.047852 -0.793945
v 0.000000 0.008789 0.012695
vn 0.000000 0.448819 0.826772
vt 0.250000 -0.040039
v 0.000000 0.006836 0.014648
vn 0.000000 0.637795 0.692913
vt 0.250000 -0.157227
v 0.007813 0.006836 0.011719
vn 0.275591 0.078740 0.897638
vt 0.483398 -0.259766
v 0.013672 0.000000 0.009766
vn 0.464567 -0.062992 0.818898
vt 0.512695 -0.479492
v 0.013672 0.002930 0.009766
vn 0.409449 0.157480 0.834646
vt 0.517578 -0.422852
v 0.000000 -0.010742 0.012695
vn 0.000000 -0.157480 0.929134
vt 0.250000 -0.958008
v 0.000000 -0.008789 0.013672
vn 0.000000 -0.480315 0.811024
vt 0.250000 -0.908203
v -0.006836 -0.006836 0.012695
vn -0.393701 -0.448819 0.724409
vt 0.037109 -0.710938
v -0.008789 -0.007813 0.010742
vn -0.480315 -0.370079 0.716535
vt -0.004883 -0.714844
v 0.016602 0.002930 0.007813
vn 0.456693 0.023622 0.826772
vt 0.527344 -0.434570
v 0.017578 -0.000977 0.006836
vn 0.519685 -0.165354 0.763780
vt 0.535156 -0.499023
v -0.013672 0.000000 0.009766
vn -0.464567 -0.062992 0.818898
vt 0.987305 -0.479492
v -0.016602 0.002930 0.007813
vn -0.456693 0.023622 0.826772
vt 0.972656 -0.434570
v -0.017578 -0.000977 0.006836
vn -0.519685 -0.165354 0.763780
vt 0.964844 -0.499023
v -0.013672 0.002930 0.009766
vn -0.409449 0.157480 0.834646
vt 0.982422 -0.422852
v 0.002930 -0.003906 0.014648
vn 0.291339 -0.559055 0.700787
vt 0.357422 -0.726563
v 0.003906 -0.005859 0.011719
vn 0.291339 -0.574803 0.685039
vt 0.452148 -0.793945
v 0.007813 -0.011719 0.011719
vn 0.275591 -0.173228 0.881890
vt 0.443359 -0.387695
v 0.006836 -0.016602 0.010742
vn 0.338583 -0.299213 0.826772
vt 0.463867 -0.547852
v 0.014648 -0.009766 0.007813
vn 0.677165 -0.307087 0.574803
vt 0.513672 -0.388672
v -0.014648 -0.009766 0.007813
vn -0.677165 -0.307087 0.574803
vt -0.013672 -0.388672
v -0.006836 -0.016602 0.010742
vn -0.338583 -0.299213 0.826772
vt 0.036133 -0.547852
v -0.007813 -0.011719 0.011719
vn -0.275591 -0.173228 0.881890
vt 0.056641 -0.387695
f 95/95/95 96/96/96 97/97/97
f 98/98/98 99/99/99 100/100/100
f 98/98/98 100/100/100 101/101/101
f 100/100/100 102/102/102 101/101/101
f 100/100/100 103/103/103 102/102/102
f 97/97/97 104/104/104 105/105/105
f 97/97/97 96/96/96 104/104/104
f 96/96/96 106/106/106 104/104/104
f 107/107/107 106/106/106 96/96/96
f 107/107/107 108/108/108 106/106/106
f 109/109/109 110/110/110 111/111/111
f 109/109/109 111/111/111 112/112/112
f 107/107/107 113/113/113 108/108/108
f 107/107/107 114/114/114 113/113/113
f 115/115/115 116/116/116 117/117/117
f 115/115/115 118/118/118 116/116/116
f 119/119/119 103/103/103 120/120/120
f 119/119/119 102/102/102 103/103/103
f 121/121/121 122/122/122 123/123/123
f 124/124/124 125/125/125 126/126/126
v -0.007813 -0.011719 0.011719
vn -0.275591 -0.173228 0.881890
vt 0.056641 -0.387695
v -0.006836 -0.016602 0.010742
vn -0.338583 -0.299213 0.826772
vt 0.036133 -0.547852
v 0.000000 -0.020508 0.010742
vn 0.000000 -0.314961 0.889764
vt 0.250000 -0.919922
v -0.002930 -0.013672 0.010742
vn -0.535433 -0.133858 0.763780
vt 0.093750 -0.382813
v 0.000000 -0.017578 0.012695
vn 0.000000 -0.535433 0.771654
vt 0.250000 -0.686523
v 0.014648 -0.009766 0.007813
vn 0.677165 -0.307087 0.574803
vt 0.513672 -0.388672
v 0.018555 -0.002930 0.004883
vn 0.692913 -0.228346 0.590551
vt 0.532227 -0.323242
v 0.007813 -0.011719 0.011719
vn 0.275591 -0.173228 0.881890
vt 0.443359 -0.387695
v -0.018555 -0.002930 0.004883
vn -0.692913 -0.228346 0.590551
vt -0.032227 -0.323242
v -0.014648 -0.009766 0.007813
vn -0.677165 -0.307087 0.574803
vt -0.013672 -0.388672
v -0.001953 -0.014648 0.012695
vn -0.574803 0.102362 0.732283
vt 0.183594 -0.457031
v 0.002930 -0.013672 0.010742
vn 0.535433 -0.133858 0.763780
vt 0.406250 -0.382813
v 0.006836 -0.016602 0.010742
vn 0.338583 -0.299213 0.826772
vt 0.463867 -0.547852
v 0.008789 -0.021484 0.004883
vn 0.614173 -0.598425 0.393701
vt 0.565430 -0.691406
v 0.007813 -0.020508 0.007813
vn 0.598425 -0.598425 0.401575
vt 0.519531 -0.680664
v -0.007813 -0.020508 0.007813
vn -0.598425 -0.598425 0.401575
vt 0.980469 -0.680664
v -0.014648 -0.009766 0.007813
vn -0.677165 -0.307087 0.574803
vt 0.986328 -0.388672
v -0.008789 -0.021484 0.004883
vn -0.614173 -0.598425 0.393701
vt 0.934570 -0.691406
v -0.018555 -0.002930 0.004883
vn -0.692913 -0.228346 0.590551
vt 0.967773 -0.323242
v 0.001953 -0.014648 0.012695
vn 0.574803 0.102362 0.732283
vt 0.316406 -0.457031
v 0.000000 -0.010742 0.012695
vn 0.000000 -0.157480 0.929134
vt 0.250000 -0.212891
v 0.000000 -0.013672 0.012695
vn 0.000000 0.307087 0.889764
vt 0.250000 -0.364258
v 0.000000 -0.027344 0.004883
vn 0.000000 -0.795276 0.496063
vt 0.750000 -0.890625
v 0.000000 -0.025391 0.007813
vn 0.000000 -0.803150 0.488189
vt 0.750000 -0.966797
f 127/127/127 128/128/128 129/129/129
f 130/130/130 129/129/129 131/131/131
f 132/132/132 133/133/133 134/134/134
f 127/127/127 135/135/135 136/136/136
f 129/129/129 130/130/130 127/127/127
f 131/131/131 137/137/137 130/130/130
f 129/129/129 134/134/134 138/138/138
f 129/129/129 139/139/139 134/134/134
f 140/140/140 132/132/132 141/141/141
f 133/133/133 132/132/132 140/140/140
f 142/142/142 143/143/143 144/144/144
f 144/144/144 143/143/143 145/145/145
f 138/138/138 131/131/131 129/129/129
f 138/138/138 146/146/146 131/131/131
f 146/146/146 147/147/147 148/148/148
f 146/146/146 138/138/138 147/147/147
f 149/149/149 150/150/150 144/144/144
f 150/150/150 142/142/142 144/144/144
f 147/147/147 137/137/137 148/148/148
f 147/147/147 130/130/130 137/137/137
f 141/141/141 150/150/150 140/140/140
f 150/150/150 149/149/149 140/140/140
v -0.002930 -0.003906 0.014648
vn -0.157480 -0.275591 0.881890
vt -0.060547 -0.846680
v 0.002930 -0.003906 0.014648
vn 0.157480 -0.275591 0.881890
vt 0.560547 -0.846680
v 0.000000 0.000977 0.016602
vn 0.000000 -0.023622 0.937008
vt 0.250000 -0.563477
v 0.004883 0.000000 0.014648
vn 0.338583 -0.070866 0.874016
vt 0.529297 -0.574219
v 0.003906 0.003906 0.014648
vn 0.299213 0.141732 0.881890
vt 0.533203 -0.323242
v 0.000000 0.006836 0.014648
vn 0.000000 0.244094 0.905512
vt -0.250000 -0.026367
v -0.003906 0.003906 0.014648
vn -0.299213 0.141732 0.881890
vt -0.033203 -0.323242
v -0.004883 0.000000 0.014648
vn -0.338583 -0.070866 0.874016
vt -0.029297 -0.574219
f 151/151/151 152/152/152 153/153/153
f 152/152/152 154/154/154 153/153/153
f 154/154/154 155/155/155 153/153/153
f 153/153/153 155/155/155 156/156/156
f 153/153/153 156/156/156 157/157/157
f 153/153/153 157/157/157 158/158/158
f 153/153/153 158/158/158 151/151/151
