# Blender v3.6.5 OBJ File: 'BidenMaskLowerPolyFieldModel.blend'
# www.blender.org
mtllib BidenMaskLowerPolyFieldModelSO.mtl
g JoeBidenFaceGI
v 988.543335 116.034187 -328.071747
v 660.471802 289.197876 -364.547791
v 837.881042 257.847229 -342.638428
v 1023.160400 -347.155060 -362.688538
v 838.034424 -640.778564 -400.940674
v 660.471802 -754.083923 -364.547211
v 838.034363 341.274597 285.363983
v 660.471802 289.198364 364.547211
v 660.471802 -754.083557 364.547791
v 904.004089 -701.889160 328.071869
v 1023.160400 -347.154419 362.688660
v 988.543335 116.034599 328.071350
v 1023.160339 286.538086 -80.166496
v 1003.109985 257.847504 177.408981
v 1023.160339 -751.423767 80.166557
v 988.543335 -701.889404 -243.532272
v 872.509888 -93.320938 -461.498016
v 660.471802 52.643642 -467.566986
v 660.471802 -232.443115 -502.060425
v 660.471802 -517.529785 -467.566681
v 660.471802 52.644169 467.566650
v 660.471802 -232.442535 502.060394
v 660.471802 -517.529297 467.566986
v 849.547180 38.110523 435.966797
v 872.509949 -371.564606 461.497986
v 1119.771362 72.187752 103.510376
v 1119.771362 -380.558624 212.890335
v 1128.038574 -232.442825 -0.000026
v 1119.771362 -537.073364 -103.510330
v 1119.771362 -84.327026 -212.890350
v 660.471802 436.611115 -199.232529
v 660.471802 485.969086 -0.000405
v 660.471802 436.611420 199.231781
v 872.509888 427.927094 -97.225609
v 660.471802 -901.496765 199.232544
v 660.471802 -950.854736 0.000405
v 660.471802 -901.497009 -199.231766
v 849.547180 -856.279663 189.075745
v 872.509949 -892.812927 -97.224792
vt 0.088797 0.405646
vt 0.056094 0.500459
vt 0.083904 0.306171
vt 0.137620 0.778742
vt 0.196370 0.262970
vt 0.184626 0.166323
vt 0.264529 0.820389
vt 0.168461 0.578636
vt 0.166962 0.144958
vt 0.865655 0.500459
vt 0.812368 0.316075
vt 0.837845 0.306171
vt 0.837845 0.694747
vt 0.725378 0.820389
vt 0.832952 0.595271
vt 0.753288 0.578636
vt 0.725378 0.262970
vt 0.690946 0.109467
vt 0.754787 0.144958
vt 0.460874 0.500459
vt 0.289234 0.399517
vt 0.544328 0.292852
vt 0.377420 0.708066
vt 0.603909 0.166323
vt 0.632515 0.601401
vt 0.525507 0.854147
vt 0.396241 0.146770
vt 0.460874 0.010857
vt 0.382488 0.050413
vt 0.300246 0.044495
vt 0.460874 0.990060
vt 0.613314 0.925607
vt 0.621503 0.956423
vt 0.300246 0.956423
vt 0.382488 0.950505
vt 0.754787 0.855960
vt 0.083904 0.694747
vt 0.166962 0.855960
vt 0.621503 0.044495
vn 0.3932 0.1085 -0.9130
vn 0.2189 -0.0453 -0.9747
vn 0.1953 0.2802 -0.9399
vn 0.3607 -0.4216 -0.8320
vn 0.6701 0.3614 -0.6483
vn 0.3861 0.5622 -0.7313
vn 0.6840 -0.5311 -0.5001
vn 0.6972 -0.1122 -0.7081
vn 0.2002 0.5817 -0.7884
vn 0.1839 0.0214 0.9827
vn 0.3591 0.2375 0.9026
vn 0.1956 0.2781 0.9404
vn 0.2031 -0.2864 0.9363
vn 0.5150 -0.4989 0.6971
vn 0.3772 -0.1156 0.9189
vn 0.7109 -0.0744 0.6993
vn 0.6779 0.3043 0.6693
vn 0.3907 0.7074 0.5891
vn 0.2137 0.5245 0.8241
vn 1.0000 0.0000 -0.0000
vn 0.9290 0.1172 -0.3510
vn 0.9532 0.2435 0.1794
vn 0.9496 -0.2603 -0.1747
vn 0.7359 0.5939 0.3251
vn 0.9312 -0.1264 0.3418
vn 0.8042 -0.5697 0.1694
vn 0.7982 0.5768 -0.1738
vn 0.2947 0.9535 0.0627
vn 0.4812 0.8564 -0.1871
vn 0.2321 0.8495 -0.4738
vn 0.2455 -0.9690 0.0282
vn 0.4131 -0.8074 0.4212
vn 0.2419 -0.8574 0.4543
vn 0.2693 -0.8272 -0.4932
vn 0.4786 -0.8475 -0.2295
vn 0.2406 -0.5777 0.7800
vn 0.2188 -0.2010 -0.9549
vn 0.2462 -0.6241 -0.7416
vn 0.2916 0.8806 0.3735
usemtl Face
s 1
f 17/1/1 19/2/2 18/3/3
f 5/4/4 19/2/2 17/1/1
f 1/5/5 17/1/1 3/6/6
f 16/7/7 5/4/4 4/8/8
f 3/6/6 18/3/3 2/9/9
f 22/10/10 24/11/11 21/12/12
f 23/13/13 10/14/14 25/15/15
f 25/15/15 10/14/14 11/16/16
f 25/15/15 12/17/17 24/11/11
f 24/11/11 12/17/17 7/18/18
f 21/12/12 7/18/18 8/19/19
f 28/20/20 30/21/21 26/22/22
f 28/20/20 29/23/23 30/21/21
f 12/17/17 26/22/22 14/24/24
f 12/17/17 27/25/25 26/22/22
f 10/14/14 27/25/25 11/16/16
f 15/26/26 29/23/23 27/25/25
f 29/23/23 16/7/7 4/8/8
f 30/21/21 1/5/5 13/27/27
f 14/24/24 26/22/22 13/27/27
f 32/28/28 34/29/29 31/30/30
f 32/28/28 7/18/18 34/29/29
f 7/18/18 12/17/17 14/24/24
f 34/29/29 14/24/24 13/27/27
f 34/29/29 1/5/5 3/6/6
f 31/30/30 3/6/6 2/9/9
f 36/31/31 38/32/32 35/33/33
f 37/34/34 5/4/4 39/35/35
f 39/35/35 16/7/7 15/26/26
f 39/35/35 15/26/26 38/32/32
f 35/33/33 10/14/14 9/36/36
f 5/4/4 20/37/37 19/2/2
f 1/5/5 4/8/8 17/1/1
f 4/8/8 5/4/4 17/1/1
f 5/4/4 6/38/38 20/37/37
f 3/6/6 17/1/1 18/3/3
f 22/10/10 25/15/15 24/11/11
f 22/10/10 23/13/13 25/15/15
f 23/13/13 9/36/36 10/14/14
f 25/15/15 11/16/16 12/17/17
f 21/12/12 24/11/11 7/18/18
f 26/22/22 27/25/25 28/20/20
f 27/25/25 29/23/23 28/20/20
f 12/17/17 11/16/16 27/25/25
f 10/14/14 15/26/26 27/25/25
f 29/23/23 15/26/26 16/7/7
f 30/21/21 29/23/23 4/8/8
f 30/21/21 4/8/8 1/5/5
f 26/22/22 30/21/21 13/27/27
f 32/28/28 33/39/39 7/18/18
f 33/39/39 8/19/19 7/18/18
f 34/29/29 7/18/18 14/24/24
f 34/29/29 13/27/27 1/5/5
f 31/30/30 34/29/29 3/6/6
f 36/31/31 39/35/35 38/32/32
f 36/31/31 37/34/34 39/35/35
f 37/34/34 6/38/38 5/4/4
f 39/35/35 5/4/4 16/7/7
f 38/32/32 15/26/26 10/14/14
f 35/33/33 38/32/32 10/14/14
