# Blender v3.6.5 OBJ File: 'BidenMaskLowerPoly.blend'
# www.blender.org
mtllib BidenMaskLowerPoly.mtl
g JoeBidenFaceGI
v -19.849224 -21.083824 19.849226
v -22.056120 -31.560703 -0.000000
v -20.730543 -29.663902 10.733747
v -21.943651 6.940391 21.943651
v -24.258022 24.705420 10.743023
v -22.056120 31.560703 0.000000
v 17.265318 -34.711464 10.743020
v 22.056120 -31.560707 0.000001
v 22.056120 31.560703 0.000000
v 19.849230 28.402802 14.734369
v 21.943653 6.940379 21.943651
v 19.849224 -21.083828 19.849224
v -4.850273 -31.399769 21.943647
v 10.733746 -29.663902 20.730547
v 4.850279 31.399771 21.943647
v -14.734384 28.402798 19.849226
v -27.921888 -8.417271 12.828886
v -28.289070 -17.248528 -0.000000
v -30.376028 0.000000 0.000000
v -28.289072 17.248528 0.000000
v 28.289070 -17.248528 0.000001
v 30.376028 0.000000 0.000000
v 28.289070 17.248526 -0.000000
v 26.377193 -16.369204 11.439578
v 27.921885 8.417265 12.828890
v 6.262672 -18.430981 27.788876
v 12.880443 8.961419 27.788877
v -0.000000 0.000000 28.289070
v -6.262667 18.430979 27.788876
v -12.880443 -8.961418 27.788877
v -12.054090 -40.479603 0.000001
v 0.000000 -43.465885 0.000000
v 12.054090 -40.479607 -0.000000
v -5.882391 -39.954193 12.828886
v 12.054090 40.479607 0.000001
v -0.000000 43.465885 0.000001
v -12.054090 40.479603 -0.000000
v 11.439577 37.743847 11.439578
v -5.882387 39.954193 12.828888
vt 0.088797 0.405646
vt 0.056094 0.500459
vt 0.083904 0.306171
vt 0.137620 0.778742
vt 0.196370 0.262970
vt 0.184626 0.166323
vt 0.264529 0.820389
vt 0.168461 0.578636
vt 0.166962 0.144958
vt 0.865655 0.500459
vt 0.812368 0.316075
vt 0.837845 0.306171
vt 0.837845 0.694747
vt 0.725378 0.820389
vt 0.832952 0.595271
vt 0.753288 0.578636
vt 0.725378 0.262970
vt 0.690946 0.109467
vt 0.754787 0.144958
vt 0.460874 0.500459
vt 0.289234 0.399517
vt 0.544328 0.292852
vt 0.377420 0.708066
vt 0.603909 0.166323
vt 0.632515 0.601401
vt 0.525507 0.854147
vt 0.396241 0.146770
vt 0.460874 0.010857
vt 0.382488 0.050413
vt 0.300246 0.044495
vt 0.460874 0.990060
vt 0.613314 0.925607
vt 0.621503 0.956423
vt 0.300246 0.956423
vt 0.382488 0.950505
vt 0.754787 0.855960
vt 0.083904 0.694747
vt 0.166962 0.855960
vt 0.621503 0.044495
vn -0.9130 -0.1085 0.3932
vn -0.9747 0.0453 0.2189
vn -0.9399 -0.2802 0.1953
vn -0.8320 0.4216 0.3607
vn -0.6483 -0.3614 0.6701
vn -0.7313 -0.5622 0.3861
vn -0.5001 0.5311 0.6840
vn -0.7081 0.1122 0.6972
vn -0.7884 -0.5817 0.2002
vn 0.9827 -0.0214 0.1839
vn 0.9026 -0.2375 0.3591
vn 0.9404 -0.2781 0.1956
vn 0.9363 0.2864 0.2031
vn 0.6971 0.4989 0.5150
vn 0.9189 0.1156 0.3772
vn 0.6993 0.0744 0.7109
vn 0.6693 -0.3043 0.6779
vn 0.5891 -0.7074 0.3907
vn 0.8241 -0.5245 0.2137
vn 0.0000 -0.0000 1.0000
vn -0.3510 -0.1172 0.9290
vn 0.1794 -0.2435 0.9532
vn -0.1747 0.2603 0.9496
vn 0.3251 -0.5939 0.7359
vn 0.3418 0.1264 0.9312
vn 0.1694 0.5697 0.8042
vn -0.1738 -0.5768 0.7982
vn 0.0627 -0.9535 0.2947
vn -0.1871 -0.8564 0.4812
vn -0.4738 -0.8495 0.2321
vn 0.0282 0.9690 0.2455
vn 0.4212 0.8074 0.4131
vn 0.4543 0.8574 0.2419
vn -0.4932 0.8272 0.2693
vn -0.2295 0.8475 0.4786
vn 0.7800 0.5777 0.2406
vn -0.9549 0.2010 0.2188
vn -0.7416 0.6241 0.2462
vn 0.3735 -0.8806 0.2916
usemtl Face
s 1
f 17/1/1 19/2/2 18/3/3
f 5/4/4 19/2/2 17/1/1
f 1/5/5 17/1/1 3/6/6
f 16/7/7 5/4/4 4/8/8
f 3/6/6 18/3/3 2/9/9
f 22/10/10 24/11/11 21/12/12
f 23/13/13 10/14/14 25/15/15
f 25/15/15 10/14/14 11/16/16
f 25/15/15 12/17/17 24/11/11
f 24/11/11 12/17/17 7/18/18
f 21/12/12 7/18/18 8/19/19
f 28/20/20 30/21/21 26/22/22
f 28/20/20 29/23/23 30/21/21
f 12/17/17 26/22/22 14/24/24
f 12/17/17 27/25/25 26/22/22
f 10/14/14 27/25/25 11/16/16
f 15/26/26 29/23/23 27/25/25
f 29/23/23 16/7/7 4/8/8
f 30/21/21 1/5/5 13/27/27
f 14/24/24 26/22/22 13/27/27
f 32/28/28 34/29/29 31/30/30
f 32/28/28 7/18/18 34/29/29
f 7/18/18 12/17/17 14/24/24
f 34/29/29 14/24/24 13/27/27
f 34/29/29 1/5/5 3/6/6
f 31/30/30 3/6/6 2/9/9
f 36/31/31 38/32/32 35/33/33
f 37/34/34 5/4/4 39/35/35
f 39/35/35 16/7/7 15/26/26
f 39/35/35 15/26/26 38/32/32
f 35/33/33 10/14/14 9/36/36
f 5/4/4 20/37/37 19/2/2
f 1/5/5 4/8/8 17/1/1
f 4/8/8 5/4/4 17/1/1
f 5/4/4 6/38/38 20/37/37
f 3/6/6 17/1/1 18/3/3
f 22/10/10 25/15/15 24/11/11
f 22/10/10 23/13/13 25/15/15
f 23/13/13 9/36/36 10/14/14
f 25/15/15 11/16/16 12/17/17
f 21/12/12 24/11/11 7/18/18
f 26/22/22 27/25/25 28/20/20
f 27/25/25 29/23/23 28/20/20
f 12/17/17 11/16/16 27/25/25
f 10/14/14 15/26/26 27/25/25
f 29/23/23 15/26/26 16/7/7
f 30/21/21 29/23/23 4/8/8
f 30/21/21 4/8/8 1/5/5
f 26/22/22 30/21/21 13/27/27
f 32/28/28 33/39/39 7/18/18
f 33/39/39 8/19/19 7/18/18
f 34/29/29 7/18/18 14/24/24
f 34/29/29 13/27/27 1/5/5
f 31/30/30 34/29/29 3/6/6
f 36/31/31 39/35/35 38/32/32
f 36/31/31 37/34/34 39/35/35
f 37/34/34 6/38/38 5/4/4
f 39/35/35 5/4/4 16/7/7
f 38/32/32 15/26/26 10/14/14
f 35/33/33 38/32/32 10/14/14
