g 0x0710
v 0.648438 -0.638672 0.147461
vn 0.834646 -0.244094 0.354331
vt 6.691406 4.476563
v 0.704102 -0.604492 0.000977
vn 0.913386 -0.236220 0.000000
vt 6.187500 4.316406
v 0.894531 -0.588867 0.000977
vn 0.464567 -0.818898 0.000000
vt 4.664063 4.535156
v 0.889648 0.194336 0.000977
vn 0.314961 0.881890 0.000000
vt 3.265625 -1.628906
v 0.568359 0.116211 0.000977
vn -0.078740 0.937008 0.000000
vt 5.933594 -1.605469
v 0.784180 0.139648 0.231445
vn -0.007874 0.874016 0.354331
vt 4.195313 -1.394531
v 0.430664 -0.427734 0.358398
vn 0.251969 0.015748 0.905512
vt 8.019531 2.421875
v 0.753906 -0.475586 0.344727
vn 0.401575 -0.598425 0.598425
vt 5.558594 3.386719
v 0.805664 -0.265625 0.403320
vn 0.700787 -0.078740 0.622047
vt 4.769531 1.832031
v 0.647461 0.058594 0.346680
vn -0.236220 0.645669 0.645669
vt 5.414063 -1.011719
v 0.952148 0.015625 0.330078
vn 0.566929 0.118110 0.740157
vt 3.097656 -0.113281
v 0.952148 0.015625 0.330078
vn 0.566929 0.118110 0.740157
vt 0.953125 0.781250
v 0.889648 0.194336 0.000977
vn 0.314961 0.881890 0.000000
vt 0.917969 -0.148438
v 0.784180 0.139648 0.231445
vn -0.007874 0.874016 0.354331
vt 1.437500 0.046875
v 0.903320 -0.392578 0.249023
vn 0.795276 0.377953 0.322835
vt 4.234375 3.007813
v 0.425781 -0.005859 0.230469
vn -0.133858 0.763780 0.527559
vt 7.281250 -0.906250
v 0.417969 -0.129883 0.339844
vn -0.173228 0.362205 0.850394
vt 7.574219 0.050781
v 0.805664 -0.265625 0.403320
vn 0.700787 -0.078740 0.622047
vt 0.652344 1.160156
v 0.866211 -0.190430 0.211914
vn 0.724409 -0.307087 0.511811
vt 0.484375 0.945313
v 0.919922 0.014648 0.166992
vn 0.519685 0.330709 0.708661
vt 0.402344 0.511719
v 0.647461 -0.114258 0.484375
vn -0.039370 0.204724 0.913386
vt 5.738281 0.347656
v 0.373047 -0.274414 0.333984
vn 0.094488 0.102362 0.929134
vt 8.187500 1.101563
v 0.647461 -0.114258 0.484375
vn -0.039370 0.204724 0.913386
vt 0.976563 0.878906
v 0.647461 0.058594 0.346680
vn -0.236220 0.645669 0.645669
vt 0.945313 0.480469
v 1.101563 -0.020508 0.181641
vn 0.622047 0.598425 0.370079
vt 0.093750 0.585938
v 1.102539 -0.185547 0.153320
vn 0.377953 -0.307087 0.803150
vt 0.058594 0.917969
v 1.018555 -0.379883 0.000977
vn 0.921260 -0.165354 0.000000
vt 3.304688 3.117188
v 0.894531 -0.588867 0.000977
vn 0.464567 -0.818898 0.000000
vt 0.695313 1.109375
v 1.018555 -0.379883 0.000977
vn 0.921260 -0.165354 0.000000
vt 0.777344 0.316406
v 0.753906 -0.475586 0.344727
vn 0.401575 -0.598425 0.598425
vt 1.070313 0.863281
v 1.072266 -0.007813 0.000977
vn 0.842520 -0.409449 0.000000
vt 0.500000 0.980469
v 0.952148 0.015625 -0.329102
vn 0.566929 0.118110 -0.740157
vt 0.953125 0.781250
f 1/1/1 2/2/2 3/3/3
f 4/4/4 5/5/5 6/6/6
f 7/7/7 8/8/8 9/9/9
f 10/10/10 6/6/6 5/5/5
f 11/11/11 6/6/6 10/10/10
f 12/12/12 13/13/13 14/14/14
f 1/1/1 8/8/8 7/7/7
f 15/15/15 9/9/9 8/8/8
f 10/10/10 16/16/16 17/17/17
f 18/18/18 19/19/19 20/20/20
f 3/3/3 8/8/8 1/1/1
f 10/10/10 5/5/5 16/16/16
f 7/7/7 9/9/9 21/21/21
f 21/21/21 22/22/22 7/7/7
f 21/21/21 17/17/17 22/22/22
f 20/20/20 23/23/23 18/18/18
f 21/21/21 10/10/10 17/17/17
f 20/20/20 24/24/24 23/23/23
f 25/25/25 20/20/20 26/26/26
f 26/26/26 20/20/20 19/19/19
f 27/27/27 15/15/15 8/8/8
f 28/28/28 29/29/29 30/30/30
f 31/31/31 13/13/13 12/12/12
f 32/32/32 13/13/13 31/31/31
v 0.753906 -0.475586 -0.343750
vn 0.401575 -0.598425 -0.598425
vt 1.070313 0.863281
v 1.018555 -0.379883 0.000977
vn 0.921260 -0.165354 0.000000
vt 0.777344 0.316406
v 0.894531 -0.588867 0.000977
vn 0.464567 -0.818898 0.000000
vt 0.695313 1.109375
v 0.753906 -0.475586 -0.343750
vn 0.401575 -0.598425 -0.598425
vt 5.558594 3.386719
v 0.903320 -0.392578 -0.248047
vn 0.795276 0.377953 -0.322835
vt 4.234375 3.007813
v 1.018555 -0.379883 0.000977
vn 0.921260 -0.165354 0.000000
vt 3.304688 3.117188
v 0.866211 -0.190430 -0.210938
vn 0.724409 -0.307087 -0.511811
vt 0.484375 0.945313
v 0.919922 0.014648 -0.165039
vn 0.519685 0.330709 -0.708661
vt 0.402344 0.511719
v 1.102539 -0.185547 -0.152344
vn 0.377953 -0.307087 -0.803150
vt 0.058594 0.917969
v 1.101563 -0.020508 -0.180664
vn 0.622047 0.598425 -0.370079
vt 0.093750 0.585938
v 0.647461 -0.114258 -0.482422
vn -0.039370 0.204724 -0.913386
vt 0.976563 0.878906
v 0.647461 0.058594 -0.345703
vn -0.236220 0.645669 -0.645669
vt 0.945313 0.480469
v 0.417969 -0.129883 -0.338867
vn -0.173228 0.362205 -0.850394
vt 7.574219 0.050781
v 0.647461 0.058594 -0.345703
vn -0.236220 0.645669 -0.645669
vt 5.414063 -1.011719
v 0.647461 -0.114258 -0.482422
vn -0.039370 0.204724 -0.913386
vt 5.738281 0.347656
v 0.805664 -0.265625 -0.402344
vn 0.700787 -0.078740 -0.622047
vt 0.652344 1.160156
v 0.373047 -0.274414 -0.333008
vn 0.094488 0.102362 -0.929134
vt 8.187500 1.101563
v 0.430664 -0.427734 -0.356445
vn 0.251969 0.015748 -0.905512
vt 8.019531 2.421875
v 0.805664 -0.265625 -0.402344
vn 0.700787 -0.078740 -0.622047
vt 4.769531 1.832031
v 0.425781 -0.005859 -0.229492
vn -0.133858 0.763780 -0.527559
vt 7.281250 -0.906250
v 0.568359 0.116211 0.000977
vn -0.078740 0.937008 0.000000
vt 5.933594 -1.605469
v 0.648438 -0.638672 -0.146484
vn 0.834646 -0.244094 -0.354331
vt 6.691406 4.476563
v 0.894531 -0.588867 0.000977
vn 0.464567 -0.818898 0.000000
vt 4.664063 4.535156
v 0.784180 0.139648 -0.229492
vn -0.007874 0.874016 -0.354331
vt 1.437500 0.046875
v 0.889648 0.194336 0.000977
vn 0.314961 0.881890 0.000000
vt 0.917969 -0.148438
v 0.952148 0.015625 -0.329102
vn 0.566929 0.118110 -0.740157
vt 0.953125 0.781250
v 0.784180 0.139648 -0.229492
vn -0.007874 0.874016 -0.354331
vt 4.195313 -1.394531
v 0.952148 0.015625 -0.329102
vn 0.566929 0.118110 -0.740157
vt 3.097656 -0.113281
v 0.889648 0.194336 0.000977
vn 0.314961 0.881890 0.000000
vt 3.265625 -1.628906
v 0.704102 -0.604492 0.000977
vn 0.913386 -0.236220 0.000000
vt 6.187500 4.316406
f 33/33/33 34/34/34 35/35/35
f 36/36/36 37/37/37 38/38/38
f 39/39/39 40/40/40 41/41/41
f 41/41/41 40/40/40 42/42/42
f 43/43/43 44/44/44 40/40/40
f 45/45/45 46/46/46 47/47/47
f 48/48/48 43/43/43 40/40/40
f 49/49/49 45/45/45 47/47/47
f 50/50/50 49/49/49 47/47/47
f 47/47/47 51/51/51 50/50/50
f 52/52/52 53/53/53 46/46/46
f 54/54/54 36/36/36 55/55/55
f 40/40/40 39/39/39 48/48/48
f 45/45/45 52/52/52 46/46/46
f 36/36/36 51/51/51 37/37/37
f 50/50/50 36/36/36 54/54/54
f 56/56/56 57/57/57 58/58/58
f 46/46/46 59/59/59 60/60/60
f 53/53/53 59/59/59 46/46/46
f 51/51/51 36/36/36 50/50/50
f 59/59/59 53/53/53 61/61/61
f 55/55/55 62/62/62 54/54/54
v 0.780273 0.036133 -0.294922
vn 0.149606 0.157480 -0.913386
vt 1.210938 0.001953
v 0.895508 0.019531 -0.278320
vn 0.582677 0.212598 -0.708661
vt 0.000000 0.000000
v 0.952148 -0.274414 -0.319336
vn 0.582677 0.212598 -0.708661
vt 0.156250 1.240234
v 0.952148 -0.274414 -0.319336
vn 0.582677 0.212598 -0.708661
vt 0.390625 1.080078
v 0.933594 0.006836 -0.183594
vn 0.858268 0.204724 -0.314961
vt 1.167969 0.001953
v 0.933594 0.006836 0.184570
vn 0.858268 0.204724 0.314961
vt 1.167969 0.001953
v 0.895508 0.019531 0.279297
vn 0.582677 0.212598 0.708661
vt 0.000000 0.000000
v 0.952148 -0.274414 0.320313
vn 0.582677 0.212598 0.708661
vt 0.390625 1.080078
v 0.952148 -0.274414 0.320313
vn 0.582677 0.212598 0.708661
vt 0.156250 1.240234
v 0.780273 0.036133 0.295898
vn 0.149606 0.157480 0.913386
vt 1.210938 0.001953
f 63/63/63 64/64/64 65/65/65
f 66/66/66 64/64/64 67/67/67
f 68/68/68 69/69/69 70/70/70
f 71/71/71 69/69/69 72/72/72
v 0.903320 -0.392578 0.249023
vn 0.795276 0.377953 0.322835
vt 0.619141 0.878906
v 1.018555 -0.379883 0.000977
vn 0.921260 -0.165354 0.000000
vt -0.271484 0.515625
v 0.900391 -0.338867 0.000977
vn 0.937008 -0.031496 0.000000
vt -0.121094 0.517578
v 0.830078 -0.332031 0.201172
vn 0.881890 0.283465 0.149606
vt 0.601563 0.722656
v 0.805664 -0.265625 0.403320
vn 0.700787 -0.078740 0.622047
vt 1.380859 0.662109
v 0.866211 -0.190430 0.211914
vn 0.724409 -0.307087 0.511811
vt 0.808594 0.185547
v 1.102539 -0.185547 0.153320
vn 0.377953 -0.307087 0.803150
vt 0.433594 -0.166016
v 1.208984 -0.298828 0.000977
vn 0.921260 -0.181102 0.000000
vt -0.312500 -0.005859
v 1.102539 -0.185547 -0.152344
vn 0.377953 -0.307087 -0.803150
vt 0.433594 -0.166016
v 0.866211 -0.190430 -0.210938
vn 0.724409 -0.307087 -0.511811
vt 0.808594 0.185547
v 0.830078 -0.332031 -0.199219
vn 0.881890 0.283465 -0.149606
vt 0.601563 0.722656
v 0.805664 -0.265625 -0.402344
vn 0.700787 -0.078740 -0.622047
vt 1.380859 0.662109
v 0.903320 -0.392578 -0.248047
vn 0.795276 0.377953 -0.322835
vt 0.619141 0.878906
v 0.647461 0.058594 -0.345703
vn -0.236220 0.645669 -0.645669
vt 1.029297 1.314453
v 0.952148 0.015625 -0.329102
vn 0.566929 0.118110 -0.740157
vt 0.962891 0.246094
v 0.877930 -0.002930 0.000977
vn 0.929134 -0.165354 0.000000
vt -0.367188 1.066406
v 1.072266 -0.007813 0.000977
vn 0.842520 -0.409449 0.000000
vt -0.361328 0.369141
v 0.952148 0.015625 0.330078
vn 0.566929 0.118110 0.740157
vt 0.962891 0.246094
v 0.647461 0.058594 0.346680
vn -0.236220 0.645669 0.645669
vt 1.029297 1.314453
f 73/73/73 74/74/74 75/75/75
f 75/75/75 76/76/76 73/73/73
f 73/73/73 76/76/76 77/77/77
f 77/77/77 76/76/76 78/78/78
f 78/78/78 76/76/76 75/75/75
f 79/79/79 78/78/78 75/75/75
f 79/79/79 75/75/75 80/80/80
f 80/80/80 75/75/75 81/81/81
f 75/75/75 82/82/82 81/81/81
f 75/75/75 83/83/83 82/82/82
f 82/82/82 83/83/83 84/84/84
f 84/84/84 83/83/83 85/85/85
f 85/85/85 83/83/83 75/75/75
f 75/75/75 74/74/74 85/85/85
f 86/86/86 87/87/87 88/88/88
f 88/88/88 87/87/87 89/89/89
f 89/89/89 90/90/90 88/88/88
f 88/88/88 90/90/90 91/91/91
v 1.096680 -0.041016 0.000977
vn 0.724409 0.598425 0.000000
vt -0.046875 0.011719
v 1.145508 -0.180664 0.091797
vn 0.881890 0.149606 0.299213
vt 0.496094 0.461914
v 1.208984 -0.298828 0.000977
vn 0.921260 -0.181102 0.000000
vt -0.037109 0.911133
v 1.101563 -0.020508 0.181641
vn 0.622047 0.598425 0.370079
vt 1.058594 0.012695
v 1.102539 -0.185547 0.153320
vn 0.377953 -0.307087 0.803150
vt 0.828125 0.470703
v 1.145508 -0.180664 -0.089844
vn 0.881890 0.149606 -0.299213
vt 0.496094 0.461914
v 1.101563 -0.020508 -0.180664
vn 0.622047 0.598425 -0.370079
vt 1.058594 0.012695
v 1.102539 -0.185547 -0.152344
vn 0.377953 -0.307087 -0.803150
vt 0.828125 0.470703
f 92/92/92 93/93/93 94/94/94
f 92/92/92 95/95/95 93/93/93
f 95/95/95 96/96/96 93/93/93
f 96/96/96 94/94/94 93/93/93
f 97/97/97 98/98/98 92/92/92
f 94/94/94 97/97/97 92/92/92
f 97/97/97 94/94/94 99/99/99
f 97/97/97 99/99/99 98/98/98
v 1.101563 -0.020508 -0.180664
vn 0.622047 0.598425 -0.370079
vt 1.007813 0.992188
v 0.919922 0.014648 -0.165039
vn 0.519685 0.330709 -0.708661
vt 0.984375 0.125000
v 0.877930 -0.002930 0.000977
vn 0.929134 -0.165354 0.000000
vt 0.105469 -0.023438
v 1.096680 -0.041016 0.000977
vn 0.724409 0.598425 0.000000
vt 0.011719 1.023438
v 0.919922 0.014648 0.166992
vn 0.519685 0.330709 0.708661
vt 0.984375 0.125000
v 1.101563 -0.020508 0.181641
vn 0.622047 0.598425 0.370079
vt 1.007813 0.992188
f 100/100/100 101/101/101 102/102/102
f 103/103/103 100/100/100 102/102/102
f 102/102/102 104/104/104 105/105/105
f 102/102/102 105/105/105 103/103/103
v 0.884766 -0.366211 0.110352
vn 0.929134 0.000000 0.149606
vt 0.000000 1.000000
v 0.884766 -0.256836 0.114258
vn 0.929134 0.000000 0.149606
vt 0.000000 0.000000
v 0.867188 -0.373047 0.225586
vn 0.929134 0.000000 0.149606
vt 1.000000 1.000000
v 0.866211 -0.263672 0.229492
vn 0.929134 0.000000 0.149606
vt 1.000000 0.000000
v 0.867188 -0.373047 -0.223633
vn 0.929134 0.000000 -0.149606
vt 1.000000 1.000000
v 0.884766 -0.256836 -0.113281
vn 0.929134 0.000000 -0.149606
vt 0.000000 0.000000
v 0.884766 -0.366211 -0.109375
vn 0.929134 0.000000 -0.149606
vt 0.000000 1.000000
v 0.866211 -0.263672 -0.227539
vn 0.929134 0.000000 -0.149606
vt 1.000000 0.000000
f 106/106/106 107/107/107 108/108/108
f 107/107/107 109/109/109 108/108/108
f 110/110/110 111/111/111 112/112/112
f 110/110/110 113/113/113 111/111/111
