# Blender v2.79 (sub 0) OBJ File: ''
# www.blender.org
mtllib room3.mtl
o mesh.003
v -2198.649902 593.544678 1742.500122
v -2257.110107 208.074707 1742.500000
v -2198.649902 208.074707 1742.500000
v -2257.110107 593.544678 1742.500122
v -2198.649902 208.074722 1684.040039
v -2198.649902 593.544739 1684.040161
v -1638.640015 228.074722 1705.010010
v -1617.670044 593.544739 1684.040161
v -1638.640015 593.544678 1705.010132
v -1617.670044 228.074722 1684.040039
v -1659.609985 593.544739 1684.040161
v -1659.609985 228.074722 1684.040039
v -1515.739990 228.074722 1684.040039
v -1536.709961 593.544678 1705.010132
v -1536.709961 228.074722 1705.010010
v -1515.739990 593.544739 1684.040161
v -1557.670044 228.074722 1684.040039
v -1557.670044 593.544739 1684.040161
v -976.700012 208.074707 1742.500000
v -918.236023 208.074707 1742.500000
v -976.700012 593.544678 1742.500122
v -918.236023 593.544678 1742.500122
v -976.700012 208.074722 1684.040039
v -976.700012 593.544739 1684.040161
v -2198.649902 593.544617 2324.290039
v -2257.110107 208.074615 2382.750000
v -2198.649902 208.074615 2324.290039
v -2257.110107 593.544617 2382.750000
v -2257.110107 208.074631 2265.830078
v -2257.110107 593.544617 2265.830078
v -976.700012 593.544617 2324.290039
v -918.236023 208.074631 2265.830078
v -976.700012 208.074615 2324.290039
v -918.236023 593.544617 2265.830078
v -918.236023 208.074615 2382.750000
v -918.236023 593.544617 2382.750000
v -1587.670044 593.544495 2906.080078
v -1529.209961 208.074509 2964.540039
v -1587.670044 208.074524 2906.080078
v -1529.209961 593.544495 2964.540039
v -1646.140015 208.074509 2964.540039
v -1646.140015 593.544495 2964.540039
v -1587.670044 208.074631 2241.610107
v -1504.989990 593.544617 2324.290039
v -1504.989990 208.074615 2324.290039
v -1587.670044 593.544617 2241.610107
v -1670.349976 593.544617 2324.290039
v -1670.349976 208.074615 2324.290039
v -1587.670044 208.074600 2406.969971
v -1587.670044 593.544617 2406.969971
v -2290.899902 222.699509 3007.879883
v -1550.369995 222.699615 2310.669922
v -2290.899902 222.699615 2310.669922
v -1550.369995 222.699509 3007.879883
v -976.700012 593.544495 2906.080078
v -918.236023 208.074524 2906.080078
v -976.700012 208.074524 2906.080078
v -918.236023 593.544495 2906.080078
v -976.700012 208.074509 2964.540039
v -976.700012 593.544495 2964.540039
v -2198.649902 125.449524 2906.080078
v -2257.110107 125.449524 2906.080078
v -2198.649902 593.544495 2906.080078
v -2257.110107 593.544495 2906.080078
v -2198.649902 125.449516 2964.540039
v -2198.649902 593.544495 2964.540039
v -918.236023 228.074509 2964.540039
v -1587.670044 228.074615 2324.290039
v -1587.670044 228.074509 2964.540039
v -1557.670044 228.074722 1684.040039
v -918.236023 228.074722 1684.040039
v -918.236023 593.544739 1684.040161
v -918.236023 593.544495 2964.540039
v -2257.110107 593.544495 2964.540039
v -2257.110107 173.199509 2964.540039
v -2257.110107 228.074615 2324.290039
v -2257.110107 228.074722 1684.040039
v -1617.670044 228.074722 1684.040039
v -1557.670044 228.074722 1664.040039
v -1617.670044 228.074722 1664.040039
v -1617.670044 328.074738 1684.040039
v -1617.670044 328.074738 1664.040039
v -1557.670044 328.074738 1664.040039
v -1557.670044 328.074738 1684.040039
v -2257.110107 593.544739 1684.040161
vt 0.480099 0.020320
vt 0.423698 0.302480
vt 0.423698 0.020320
vt 0.480099 0.302480
vt 0.592999 0.246050
vt 0.423698 0.246050
vt 0.592999 0.302480
vt 0.536499 0.302480
vt 0.592999 0.020320
vt 0.536499 0.020320
vt 2.887199 -1.092010
vt -0.921400 2.953150
vt -0.921400 -1.092010
vt 2.887199 2.953150
vt 1.000000 1.044780
vt 0.000000 -1.000000
vt 1.000000 -1.000000
vt 0.000000 1.044780
vt 0.000000 -1.000000
vt 0.000000 1.044780
vt 1.000000 -1.000000
vt 0.000000 2.060370
vt 1.000000 2.060370
vt 0.000000 -1.000000
vt 0.000000 2.060370
vt 0.000000 -1.000000
vt 0.000000 -1.000000
vt 1.000000 2.060370
vt 1.000000 -1.000000
vt 0.000000 2.060370
vt 0.000000 -1.000000
vt 0.000000 2.060370
vt 1.000000 -1.000000
vt 0.000000 -1.000000
vt 1.000000 1.044780
vt 0.000000 1.044780
vt 0.000000 -1.000000
vt 0.000000 1.044780
vt 1.000000 1.000000
vt 0.000000 -0.445880
vt 1.000000 -0.445880
vt 0.000000 1.000000
vt 0.000000 -0.445880
vt 0.000000 1.000000
vt 1.000000 1.000000
vt 0.000000 -0.445880
vt 1.000000 -0.445880
vt 0.000000 1.000000
vt 0.000000 -0.445880
vt 0.000000 1.000000
vt 1.000000 1.000000
vt 0.000000 -0.445880
vt 1.000000 -0.445880
vt 0.000000 1.000000
vt 0.000000 -0.445880
vt 0.000000 1.000000
vt 1.000000 -0.022390
vt 0.000000 1.000000
vt 0.000000 -0.022390
vt 1.000000 1.000000
vt 0.000000 1.000000
vt 0.000000 -0.022390
vt 1.000000 -0.022390
vt 1.000000 1.000000
vt 1.000000 1.044780
vt 0.000000 -1.000000
vt 1.000000 -1.000000
vt 0.000000 1.044780
vt 0.000000 -1.000000
vt 0.000000 1.044780
vt 1.000000 -0.438300
vt 0.000000 -0.438300
vt 1.000000 2.044780
vt 0.000000 2.044780
vt 0.000000 -0.438300
vt 0.000000 2.044780
vt -1.266602 2.000000
vt 1.785801 -0.919280
vt 1.785801 2.000000
vt 1.785801 0.080720
vt -1.266602 3.000000
vt 1.648998 -2.838570
vt -1.266602 -2.838570
vt 3.733398 0.000000
vt -2.105099 1.666400
vt -2.105099 0.000000
vt 3.733398 1.666400
vt -2.266602 0.000000
vt 3.838200 1.666400
vt -2.266602 1.666400
vt 0.785801 0.000000
vt 1.838200 1.666400
vt -1.214199 0.000000
vt 1.838200 -0.250210
vt -1.214199 -0.919280
vt 1.848400 2.000000
vt -1.214199 2.000000
vt 1.838200 -0.919280
vt 1.838200 2.010700
vt -1.214199 2.080720
vt 1.838200 -0.838570
vt 1.838200 2.080720
vt -1.077400 -0.838570
vt 0.922600 -0.838570
vt 0.785801 2.080720
vt 0.648998 -0.838570
vt -1.020699 0.000000
vt 1.894901 1.666400
vt -1.020699 0.455960
vt 1.894901 0.000000
vt -1.020699 -0.544040
vt 1.894901 0.666400
vt -1.294300 -0.544040
vt -2.209900 0.666400
vt 0.705700 -0.544040
vt 3.894901 0.666400
vt -1.209900 0.000000
vt 1.705700 0.455960
vt -1.209900 1.666400
vt 1.705700 0.000000
vt 1.676701 1.666400
vt -1.242599 0.000000
vt 1.676701 0.000000
vt -2.161800 1.666400
vt 0.757401 0.000000
vt 3.676701 1.666400
vt 1.757401 0.000000
vt -1.161800 1.666400
vt -1.161800 -0.250210
vt -2.266602 -2.333600
vt 3.838200 -2.333600
vt 3.838200 3.505000
vt -2.266602 3.505000
vt 0.513702 0.735940
vt -0.086304 0.535940
vt 0.513702 0.535940
vt -0.086304 0.735940
vn 1.0000 0.0000 0.0000
vn 0.0000 -1.0000 0.0000
vn -1.0000 0.0000 0.0000
vn 0.0000 1.0000 0.0000
vn 0.0000 -0.0000 1.0000
vn 0.7071 0.0000 0.7071
vn -0.7071 0.0000 0.7071
vn -0.7073 -0.0000 0.7069
vn 0.7071 0.0000 -0.7071
vn -0.7071 0.0000 -0.7071
vn -0.7070 0.0000 -0.7072
vn 0.0000 0.0000 -1.0000
vn -0.0817 0.9967 0.0000
vn 0.0000 0.9963 0.0854
g mesh.003_mesh.003__48.002
usemtl _48.002
s 1
f 80/1/1 81/2/1 78/3/1
f 81/2/1 80/1/1 82/4/1
f 83/5/2 81/2/2 82/6/2
f 81/2/2 83/5/2 84/7/2
f 83/8/3 70/9/3 84/7/3
f 70/9/3 83/8/3 79/10/3
g mesh.003_mesh.003__24.002
usemtl _24.002
f 51/11/4 52/12/4 53/13/4
f 52/12/4 51/11/4 54/14/4
g mesh.003_mesh.003__34.003
usemtl _34.003
f 1/15/5 2/16/5 3/17/5
f 2/16/5 1/15/5 4/18/5
f 5/19/1 1/15/1 3/17/1
f 1/15/1 5/19/1 6/20/1
f 7/21/6 8/22/6 9/23/6
f 8/22/6 7/21/6 10/24/6
f 11/25/7 7/21/7 9/23/7
f 7/21/7 11/25/7 12/26/7
f 13/27/6 14/28/6 15/29/6
f 14/28/6 13/27/6 16/30/6
f 14/28/8 17/31/8 15/29/8
f 17/31/8 14/28/8 18/32/8
f 19/33/5 20/34/5 21/35/5
f 22/36/5 21/35/5 20/34/5
f 19/33/3 21/35/3 23/37/3
f 24/38/3 23/37/3 21/35/3
f 25/39/6 26/40/6 27/41/6
f 26/40/6 25/39/6 28/42/6
f 29/43/9 25/39/9 27/41/9
f 25/39/9 29/43/9 30/44/9
f 31/45/10 32/46/10 33/47/10
f 32/46/10 31/45/10 34/48/10
f 35/49/7 31/45/7 33/47/7
f 31/45/7 35/49/7 36/50/7
f 37/51/9 38/52/9 39/53/9
f 38/52/9 37/51/9 40/54/9
f 41/55/11 37/51/11 39/53/11
f 37/51/11 41/55/11 42/56/11
f 43/57/9 44/58/9 45/59/9
f 44/58/9 43/57/9 46/60/9
f 43/57/10 47/61/10 46/60/10
f 47/61/10 43/57/10 48/62/10
f 49/63/7 47/61/7 48/62/7
f 47/61/7 49/63/7 50/64/7
f 49/63/6 44/58/6 50/64/6
f 44/58/6 49/63/6 45/59/6
f 55/65/12 56/66/12 57/67/12
f 56/66/12 55/65/12 58/68/12
f 59/69/3 55/65/3 57/67/3
f 55/65/3 59/69/3 60/70/3
f 61/71/12 62/72/12 63/73/12
f 64/74/12 63/73/12 62/72/12
f 61/71/1 63/73/1 65/75/1
f 66/76/1 65/75/1 63/73/1
g mesh.003_mesh.003__52.001
usemtl _52.001
f 67/77/4 68/78/4 69/79/4
f 68/80/4 67/81/4 70/82/4
f 70/82/4 67/81/4 71/83/4
f 67/84/3 72/85/3 71/86/3
f 72/85/3 67/84/3 73/87/3
f 67/88/12 74/89/12 73/90/12
f 69/91/12 74/89/12 67/88/12
f 74/92/12 69/93/12 75/94/12
f 68/95/13 75/96/13 69/97/13
f 68/95/14 76/98/14 75/99/14
f 68/100/4 77/101/4 76/102/4
f 77/101/4 68/100/4 78/103/4
f 78/104/4 68/105/4 70/106/4
f 70/107/5 72/108/5 84/109/5
f 72/108/5 70/107/5 71/110/5
f 84/111/5 72/112/5 81/113/5
f 85/114/5 81/115/5 72/116/5
f 77/117/5 81/118/5 85/119/5
f 81/118/5 77/117/5 78/120/5
f 85/121/1 76/122/1 77/123/1
f 74/124/1 76/125/1 85/126/1
f 76/127/1 74/128/1 75/129/1
f 73/130/2 74/131/2 85/132/2
f 73/130/2 85/132/2 72/133/2
g mesh.003_mesh.003__42.003
usemtl _42.003
f 79/134/4 78/135/4 70/136/4
f 78/135/4 79/134/4 80/137/4
