# Blender v2.79 (sub 0) OBJ File: ''
# www.blender.org
mtllib room8.mtl
g mesh.005
v 10762.099609 312.529785 1360.400024
v 10691.000000 38.698078 1360.400024
v 10762.099609 38.698078 1360.400024
v 10691.000000 312.529785 1360.400024
v 10691.000000 312.529785 1289.329956
v 10762.099609 312.529785 1289.329956
v 10762.099609 38.698090 1289.329956
v 10691.000000 38.698090 1289.329956
v 10324.099609 401.910797 1289.330078
v 10395.099609 401.910797 1360.400146
v 10395.099609 401.910797 1289.330078
v 10324.099609 401.910797 1360.400146
v 10324.099609 38.698078 1360.400024
v 10324.099609 38.698090 1289.329956
v 10395.099609 38.698090 1289.329956
v 10395.099609 38.698078 1360.400024
v 10691.000000 228.879852 922.402039
v 10762.099609 38.698151 922.401978
v 10691.000000 38.698151 922.401978
v 10762.099609 228.879852 922.402039
v 10762.099609 228.879837 993.468079
v 10691.000000 228.879837 993.468079
v 10691.000000 38.698139 993.468018
v 10762.099609 38.698139 993.468018
v 10324.099609 178.391846 922.401978
v 10395.099609 38.698151 922.401978
v 10324.099609 38.698151 922.401978
v 10395.099609 178.391846 922.401978
v 10395.099609 178.391830 993.468018
v 10324.099609 178.391830 993.468018
v 10324.099609 38.698139 993.468018
v 10395.099609 38.698139 993.468018
v 10537.500000 467.674805 1098.970093
v 10537.500000 467.674805 1199.480103
v 10587.799805 467.674805 1149.220093
v 10487.299805 467.674805 1149.220093
v 10487.299805 38.698112 1149.219971
v 10537.500000 38.698120 1098.969971
v 10587.799805 38.698112 1149.219971
v 10537.500000 38.698105 1199.479980
v 10697.500000 38.698185 691.802979
v 10992.700195 38.698040 1591.000000
v 10992.700195 38.698185 691.802979
v 10093.500000 38.698040 1591.000000
v 10388.700195 38.698185 691.802979
v 10620.299805 38.698204 590.429016
v 10574.599609 38.698204 590.429016
v 10620.299805 200.332901 590.429077
v 10574.599609 143.697906 590.429016
v 10511.599609 143.697906 590.429016
v 10465.900391 200.332901 590.429077
v 10465.900391 38.698204 590.429016
v 10511.599609 38.698204 590.429016
v 10511.599609 38.698208 557.091003
v 10574.599609 38.698208 557.091003
v 10574.599609 143.697906 557.091003
v 10511.599609 143.697906 557.091003
v 10465.900391 200.332870 784.418091
v 10318.299805 431.019836 916.601074
v 10093.500000 38.698185 691.802979
v 10318.299805 431.019775 1366.200073
v 10367.599609 493.612823 1079.860107
v 10367.599609 493.612823 1202.940063
v 10420.900391 493.612823 1110.630127
v 10420.900391 493.612823 1172.170166
v 10420.900391 548.895813 1172.170166
v 10420.900391 548.895813 1110.630127
v 10367.599609 548.895813 1079.860107
v 10367.599609 648.895813 1079.860107
v 10543.099609 893.789795 1141.400146
v 10367.599609 648.895813 1202.940063
v 10314.299805 648.895813 1171.400146
v 10314.299805 648.895813 1111.400146
v 10219.200195 648.895813 1171.400146
v 10314.299805 548.895813 1171.400146
v 10219.200195 548.895813 1171.400146
v 10314.299805 548.895813 1111.400146
v 10367.599609 548.895813 1202.940063
v 10767.900391 431.019775 1366.200073
v 10767.900391 431.019836 916.601074
v 10620.299805 200.332870 784.418091
v 10219.200195 548.895813 1111.400146
v 10219.200195 648.895813 1111.400146
vt 1.209100 1.539380
vt 0.773790 0.000000
vt 1.209100 0.000000
vt 0.773790 1.000000
vt 1.209100 0.539380
vt 0.173790 0.000000
vt -0.261500 0.539370
vt 0.738500 0.000000
vt 1.173790 1.000000
vt 0.738500 1.539370
vt 1.173790 0.000000
vt 0.403999 -0.107870
vt 0.722000 0.492130
vt 0.403999 0.492130
vt 0.722000 -0.107870
vt 0.596001 0.492130
vt 0.278000 1.492130
vt 0.278000 0.492130
vt 0.596001 1.492130
vt 0.596001 0.508080
vt 0.278000 -0.091921
vt 0.596001 -0.091921
vt 0.278000 0.508080
vt 0.403999 1.492130
vt 0.722000 1.492130
vt 1.455101 -0.922901
vt 1.198898 0.980400
vt -0.014702 0.980400
vt -0.250397 0.372130
vt 0.628799 -0.135460
vt 0.042702 0.879730
vt 0.042702 -0.135460
vt 0.293701 -0.152720
vt 1.042702 0.091620
vt 0.586700 0.354870
vt 1.042702 1.091620
vt 0.293701 0.847280
vt 0.749603 0.584020
vt 1.008904 0.222420
vt 0.846001 0.993280
vt 0.553001 0.485680
vt -0.153999 0.993280
vt 0.008904 0.222420
vt 0.302002 0.730020
vt 0.586130 1.598600
vt -0.586120 1.598600
vt 0.000000 -1.270670
vt 0.285710 1.106200
vt -0.586120 0.598600
vt 0.586130 0.598600
vt 0.413880 0.598600
vt 1.285710 1.106200
vt 0.714290 1.106200
vt -0.285710 0.106200
vt 0.285710 0.106200
vt 0.285710 1.011700
vt 1.360901 0.091620
vt 0.455399 1.044000
vt 1.360901 1.044000
vt 0.455399 0.091620
vt -0.081802 0.577660
vt -0.367500 0.082780
vt 0.702400 0.124900
vt 0.918198 0.577660
vt 0.042702 0.076420
vt 0.632500 0.082780
vt 0.628799 1.091620
vt -0.250397 0.584020
vt 0.042702 1.091620
vt 0.628799 0.565110
vt 0.042702 0.565110
vt 0.695880 0.091620
vt 1.285710 1.044000
vt 0.695880 1.044000
vt 1.285710 0.091620
vt -0.473400 1.009960
vt 1.374100 -0.460630
vt 1.374100 1.009960
vt -0.473400 -0.460630
vt 1.374100 1.539380
vt -0.473400 1.539380
vt -0.473400 0.000000
vt 1.129303 1.512798
vt -0.340500 -0.390499
vt 0.873100 -0.390499
vt 1.374100 0.009960
vt -0.473400 1.549340
vt -0.473400 0.009960
vt 0.304120 1.044000
vt -0.285710 0.091620
vt 0.304120 0.091620
vt -0.285710 1.044000
vt -0.101997 1.044000
vt 0.804001 0.091620
vt -0.101997 0.091620
vt 0.804001 1.044000
vt -0.285710 1.011700
vt 0.702400 1.124900
vt -0.367500 1.082780
vt 0.416702 0.630030
vt 1.419860 -3.227501
vt -0.805351 3.550940
vt -0.805352 -3.227498
vt -2.805351 3.550940
vt -0.580140 -3.227501
vt 3.973100 3.550950
vt 2.973100 3.550950
vt -1.580140 -3.227501
vt 0.747880 -3.227503
vt -0.891530 -0.459610
vt 2.417290 0.988590
vt -1.994470 0.988590
vt -0.238590 -0.459610
vt 1.417290 0.988590
vt -0.338590 -0.459610
vt 0.314350 -0.459610
vt -1.238590 -0.459610
vt 1.973100 3.550950
vt -0.252120 -3.227503
vt 1.973100 -3.227506
vt 1.011002 2.954030
vt -0.016006 -1.000000
vt 1.011002 -1.000000
vt -0.016006 2.954030
vt 1.011002 -0.045970
vt -0.016006 0.980190
vt -0.016006 -0.045970
vt 1.011002 0.980190
vt 0.011002 2.954030
vt 1.037003 -1.000000
vt 1.037003 2.954030
vt 0.011002 -1.000000
vt 0.255981 -1.000000
vt 1.283020 2.954060
vt 0.255981 2.954060
vt 1.283020 -1.000000
vt 0.983994 -1.000000
vt -0.042007 2.954030
vt -0.042007 -1.000000
vt 0.983994 2.954030
vt 0.252014 1.270840
vt 1.278015 0.244680
vt 1.278015 1.270840
vt 0.252014 0.244680
vt 0.226013 3.244680
vt 1.252014 -2.000000
vt 1.252014 3.244680
vt 0.226013 -2.000000
vt 0.528992 3.244710
vt -0.497986 -2.000000
vt 0.528992 -2.000000
vt -0.497986 3.244710
vt 0.278015 3.244680
vt 1.303986 -2.000000
vt 1.303986 3.244680
vt 0.278015 -2.000000
vt 1.278015 3.244680
vt 0.252014 -2.000000
vt 1.278015 -2.000000
vt 0.252014 3.244680
vt 1.283020 1.746170
vt 0.255981 1.746170
vt 1.283020 -0.253830
vt 0.255981 0.772360
vt 0.255981 -0.253830
vt 1.283020 0.772360
vt 0.283020 1.746170
vt 1.309021 -1.000000
vt 1.309021 1.746170
vt 0.283020 -1.000000
vt 1.011002 1.746150
vt -0.016006 1.746150
vt 1.255981 -1.000000
vt 0.229980 1.746170
vt 0.229980 -1.000000
vt 1.255981 1.746170
vt 0.528992 1.017150
vt -0.497986 -1.000000
vt 0.528992 -1.000000
vt -0.497986 1.017150
vt 0.006012 1.043300
vt 1.032013 0.017140
vt 1.032013 1.043300
vt 0.006012 0.017140
vt -0.019989 1.017140
vt 1.006012 -1.000000
vt 1.006012 1.017140
vt -0.019989 -1.000000
vt 0.006012 -1.000000
vt 1.032013 1.017140
vt 0.006012 1.017140
vt 1.032013 -1.000000
vt 1.058014 -1.000000
vt 0.032013 1.017140
vt 0.032013 -1.000000
vt 1.058014 1.017140
vt 0.226013 3.194300
vt 1.252014 -3.000000
vt 1.252014 3.194300
vt 0.226013 -3.000000
vt 0.528992 3.194330
vt -0.497986 -3.000000
vt 0.528992 -3.000000
vt -0.497986 3.194330
vt 0.278015 3.194300
vt 1.303986 -3.000000
vt 1.303986 3.194300
vt 0.278015 -3.000000
vt 1.278015 3.194300
vt 0.252014 -3.000000
vt 1.278015 -3.000000
vt 0.252014 3.194300
vt 0.335800 2.452980
vt 0.910004 -1.235860
vt 1.539902 0.283920
vt 1.335800 2.452980
vt -0.498100 -1.235860
vt 1.910004 -1.235860
vt 2.335800 2.585800
vt -3.166000 -1.103001
vt 4.169800 -1.103001
vt -2.166000 -1.103001
vt 3.335800 2.585800
vt -0.332100 2.585800
vt 1.003899 1.235901
vt -1.332100 0.585800
vt 2.335800 0.585800
vt -0.332100 0.585800
vt 2.003899 1.235901
vt 0.999802 1.235901
vt 0.003899 0.235901
vt 0.133400 1.496101
vt 0.050003 0.684601
vt 1.335800 -0.414200
vt 0.130302 3.004700
vt 0.133400 0.496101
vt 1.335800 -1.414200
vt 0.953697 0.684601
vt -0.332100 -0.414200
vt 0.999802 0.235901
vt 0.870399 1.496101
vt -0.332100 -1.414200
vt 0.870399 0.496101
vt 0.873398 3.004700
vt 0.834000 2.391280
vt -1.000000 -1.805968
vt 2.667900 -1.805967
vt 2.000000 -1.938801
vt 0.166000 2.258400
vt -1.667900 -1.938801
vt 0.169800 2.650200
vt -1.664200 -1.547020
vt 2.003700 -1.547020
vt -1.664200 1.452980
vt 0.799599 -0.716080
vt 2.003700 1.452980
vt 1.799599 -0.716080
vt -0.664200 1.452980
vt 0.539902 -0.716080
vt 1.003700 2.452980
vt -0.200401 0.283920
vt 0.429497 -1.235860
vt 0.003700 2.452980
vt -0.570503 -1.235860
vt 1.837700 -1.235860
vt 3.834000 -1.627602
vt -1.667900 2.061199
vt -3.501900 -1.627602
vt -2.667900 2.061199
vt 2.834000 -1.627602
vt 1.000000 2.061199
vt -1.834000 -1.494810
vt 3.667900 2.194033
vt 0.000000 2.194032
vt 2.667900 2.194033
vt -2.834000 -1.494810
vt 4.501900 -1.494800
vn -0.000000 -0.000000 1.000000
vn 0.000000 1.000000 0.000000
vn -1.000000 0.000000 0.000000
vn 0.000000 -1.000000 0.000000
vn 1.000000 0.000000 0.000000
vn 0.643500 -0.588100 0.490000
vn 0.500000 0.000000 -0.866000
vn 0.812800 -0.582500 0.000000
vn 0.000000 0.000000 -1.000000
vn 0.500000 0.000000 0.866000
vn 0.509300 0.000000 -0.860600
vn -0.643400 -0.588100 0.490000
vn 0.509300 0.000000 0.860600
vn -0.707500 0.000000 -0.706800
vn -0.707100 -0.000000 -0.707100
vn 0.706800 0.000000 -0.707500
vn 0.707100 0.000000 -0.707100
vn 0.707000 -0.000000 -0.707200
vn 0.706800 -0.000000 0.707400
vn -0.707300 -0.000000 0.706900
vn -0.707200 -0.000000 0.707000
vn -0.707500 -0.000000 0.706700
vn 0.000000 -0.497200 0.867700
vn 0.867700 -0.497200 -0.000000
vn 0.785600 -0.618700 -0.000000
vn 0.785400 -0.619000 -0.000000
vn 0.785600 -0.618800 0.000000
vn 0.957300 0.000000 -0.289100
vn 0.289200 0.000000 0.957300
vn 0.587300 -0.566200 0.578300
vn 0.957200 -0.000000 0.289400
vn 0.957300 0.000000 0.289100
vn 0.587300 -0.566200 -0.578300
vn 0.000000 -0.436900 -0.899500
vn -0.899500 -0.436900 0.000000
vn 0.000000 -0.436900 0.899500
vn -0.867700 -0.497200 -0.000000
vn 0.000000 -0.497200 -0.867700
g mesh.005__231.005
usemtl _231.005
s 1
f 48/1/1 47/2/1 46/3/1
f 47/2/1 48/1/1 49/4/1
f 49/2/1 48/5/1 50/6/1
f 51/7/1 50/6/1 48/5/1
f 52/8/1 50/9/1 51/10/1
f 50/9/1 52/8/1 53/11/1
f 47/12/2 54/13/2 53/14/2
f 54/13/2 47/12/2 55/15/2
f 47/16/3 56/17/3 55/18/3
f 56/17/3 47/16/3 49/19/3
f 50/20/4 56/21/4 49/22/4
f 56/21/4 50/20/4 57/23/4
f 50/24/5 54/13/5 57/25/5
f 54/13/5 50/24/5 53/14/5
f 58/26/6 45/27/6 52/28/6
f 64/29/4 63/30/4 62/31/4
f 63/30/4 64/29/4 65/32/4
f 64/33/5 66/34/5 65/35/5
f 66/36/5 64/37/5 67/38/5
f 64/39/7 68/40/7 67/41/7
f 68/42/7 64/43/7 62/44/7
f 71/45/8 69/46/8 70/47/8
f 72/48/4 69/49/4 71/50/4
f 69/51/4 72/52/4 73/53/4
f 73/54/4 72/55/4 74/56/4
f 75/57/9 74/58/9 72/59/9
f 74/58/9 75/57/9 76/60/9
f 75/61/2 77/62/2 76/63/2
f 75/64/2 68/65/2 77/66/2
f 78/67/2 68/65/2 75/64/2
f 78/67/2 67/68/2 68/65/2
f 67/68/2 78/67/2 66/69/2
f 63/70/10 66/69/10 78/67/10
f 66/69/10 63/70/10 65/71/10
f 78/72/11 72/73/11 71/74/11
f 72/73/11 78/72/11 75/75/11
f 51/76/4 81/77/4 58/78/4
f 81/77/4 51/76/4 48/79/4
f 81/80/3 48/81/3 46/82/3
f 81/83/12 46/84/12 41/85/12
f 58/86/5 52/87/5 51/88/5
f 69/89/13 77/90/13 68/91/13
f 77/90/13 69/89/13 73/92/13
f 73/93/1 82/94/1 77/95/1
f 82/94/1 73/93/1 83/96/1
f 73/54/4 74/56/4 83/97/4
f 76/98/2 77/99/2 82/100/2
g mesh.005__168.006
usemtl _168.006
f 41/101/2 42/102/2 43/103/2
f 42/104/2 41/105/2 44/106/2
f 44/107/2 41/108/2 45/109/2
f 46/110/2 45/111/2 41/112/2
f 45/111/2 46/110/2 47/113/2
f 45/114/2 53/115/2 52/116/2
f 45/114/2 47/117/2 53/115/2
f 44/118/2 45/119/2 60/120/2
g mesh.005__198.005
usemtl _198.005
f 1/121/1 2/122/1 3/123/1
f 2/122/1 1/121/1 4/124/1
f 1/125/2 5/126/2 4/127/2
f 5/126/2 1/125/2 6/128/2
f 1/129/5 7/130/5 6/131/5
f 7/130/5 1/129/5 3/132/5
f 7/133/9 5/134/9 6/135/9
f 5/134/9 7/133/9 8/136/9
f 2/137/3 5/138/3 8/139/3
f 5/138/3 2/137/3 4/140/3
f 9/141/2 10/142/2 11/143/2
f 10/142/2 9/141/2 12/144/2
f 9/145/3 13/146/3 12/147/3
f 13/146/3 9/145/3 14/148/3
f 9/149/9 15/150/9 14/151/9
f 15/150/9 9/149/9 11/152/9
f 10/153/5 15/154/5 11/155/5
f 15/154/5 10/153/5 16/156/5
f 10/157/1 13/158/1 16/159/1
f 13/158/1 10/157/1 12/160/1
f 17/161/9 18/133/9 19/136/9
f 18/133/9 17/161/9 20/162/9
f 17/163/2 21/164/2 20/165/2
f 21/164/2 17/163/2 22/166/2
f 17/167/3 23/168/3 22/169/3
f 23/168/3 17/167/3 19/170/3
f 23/122/1 21/171/1 22/172/1
f 21/171/1 23/122/1 24/123/1
f 18/173/5 21/174/5 24/175/5
f 21/174/5 18/173/5 20/176/5
f 25/177/9 26/178/9 27/179/9
f 26/178/9 25/177/9 28/180/9
f 25/181/2 29/182/2 28/183/2
f 29/182/2 25/181/2 30/184/2
f 25/185/3 31/186/3 30/187/3
f 31/186/3 25/185/3 27/188/3
f 31/189/1 29/190/1 30/191/1
f 29/190/1 31/189/1 32/192/1
f 26/193/5 29/194/5 32/195/5
f 29/194/5 26/193/5 28/196/5
f 33/141/2 34/142/2 35/143/2
f 34/142/2 33/141/2 36/144/2
f 33/197/14 37/198/14 36/199/14
f 37/198/15 33/197/15 38/200/15
f 33/201/16 39/202/17 38/203/17
f 39/202/17 33/201/16 35/204/18
f 34/205/19 39/206/19 35/207/19
f 39/206/19 34/205/19 40/208/19
f 34/209/20 37/210/21 40/211/22
f 37/210/21 34/209/20 36/212/21
g mesh.005__197
usemtl _197
f 59/213/23 45/214/23 58/215/23
f 59/216/23 60/217/23 45/218/23
f 59/219/24 44/220/24 60/221/24
f 44/222/24 59/223/24 61/224/24
f 62/225/25 61/226/25 59/227/26
f 61/228/25 62/229/25 63/230/27
f 62/231/28 69/232/28 68/233/29
f 69/232/28 62/231/28 59/234/28
f 70/235/30 69/236/30 59/237/30
f 78/238/31 61/239/31 63/240/32
f 61/239/31 78/238/31 71/241/31
f 61/242/33 71/243/33 70/244/33
f 70/245/34 79/246/34 61/247/34
f 79/248/35 70/249/35 80/250/35
f 70/251/36 59/252/36 80/253/36
f 59/254/23 81/255/23 80/256/23
f 81/257/23 59/258/23 58/259/23
f 80/260/23 81/261/23 41/262/23
f 80/263/23 41/264/23 43/265/23
f 42/266/37 80/267/37 43/268/37
f 80/269/37 42/270/37 79/271/37
f 42/272/38 61/273/38 79/274/38
f 61/275/38 42/276/38 44/277/38
