g 0x0918
v -0.014648 -0.014648 -0.019531
vn -0.236220 -0.763780 -0.496063
vt 1.621094 -5.664063
v -0.022461 -0.005859 -0.024414
vn -0.007874 -0.149606 -0.929134
vt 2.023438 -7.316406
v 0.000000 -0.018555 -0.017578
vn 0.000000 0.110236 -0.937008
vt 0.578125 -4.882813
v 0.014648 -0.014648 -0.019531
vn 0.236220 -0.763780 -0.496063
vt -0.574219 -5.664063
v 0.022461 -0.005859 -0.024414
vn 0.007874 -0.149606 -0.929134
vt -1.210938 -7.316406
v 0.011719 -0.009766 -0.005859
vn -0.551181 0.551181 -0.527559
vt -0.363281 -6.539063
v -0.011719 -0.009766 -0.005859
vn 0.551181 0.551181 -0.527559
vt 1.285156 -6.539063
v 0.022461 -0.005859 -0.024414
vn 0.007874 -0.149606 -0.929134
vt 0.160156 -1.136719
v 0.011719 -0.009766 -0.005859
vn -0.551181 0.551181 -0.527559
vt -0.117188 -2.738281
v 0.013672 0.007813 -0.003906
vn -0.653543 -0.062992 -0.669291
vt 0.210938 -4.867188
v 0.000000 -0.022461 -0.007813
vn 0.000000 -0.881890 -0.314961
vt -0.097656 -1.445313
v 0.000000 -0.018555 -0.017578
vn 0.000000 0.110236 -0.937008
vt 0.296875 -0.882813
v 0.014648 -0.014648 -0.019531
vn 0.236220 -0.763780 -0.496063
vt -0.011719 -0.929688
v -0.014648 -0.014648 -0.019531
vn -0.236220 -0.763780 -0.496063
vt 0.964844 -1.179688
v 0.000000 -0.002930 0.004883
vn 0.000000 0.251969 -0.905512
vt 0.187500 -4.675781
v -0.011719 -0.009766 -0.005859
vn 0.551181 0.551181 -0.527559
vt 0.617188 -2.921875
v 0.023438 0.013672 -0.016602
vn 0.622047 0.519685 -0.480315
vt 0.562500 -3.734375
v 0.031250 -0.006836 -0.002930
vn 0.905512 -0.212598 0.118110
vt -0.769531 -3.148438
v -0.031250 -0.006836 -0.002930
vn -0.905512 -0.212598 0.118110
vt 1.281250 -3.667969
v -0.023438 0.013672 -0.016602
vn -0.622047 0.519685 -0.480315
vt 2.082031 -4.117188
v -0.022461 -0.005859 -0.024414
vn -0.007874 -0.149606 -0.929134
vt 1.601563 -1.500000
v 0.000000 0.029297 -0.008789
vn 0.000000 0.370079 -0.866142
vt 1.632813 -6.316406
v 0.009766 0.027344 -0.002930
vn 0.480315 0.811024 0.055118
vt 1.070313 -6.625000
v -0.009766 0.027344 -0.002930
vn -0.480315 0.811024 0.055118
vt 1.695313 -6.781250
v 0.000000 0.031250 0.000977
vn 0.000000 0.929134 0.157480
vt 1.417969 -7.480469
v 0.000000 0.029297 -0.008789
vn 0.000000 0.370079 -0.866142
vt 1.632813 -6.316406
v -0.013672 0.007813 -0.003906
vn 0.653543 -0.062992 -0.669291
vt 1.175781 -5.109375
v 0.009766 0.027344 -0.002930
vn 0.480315 0.811024 0.055118
vt 6.695313 4.480469
v 0.000000 0.031250 0.000977
vn 0.000000 0.929134 0.157480
vt 6.191406 4.316406
v 0.000000 0.023438 0.013672
vn 0.000000 0.724409 0.598425
vt 4.667969 4.535156
v 0.000000 -0.027344 0.012695
vn 0.000000 -0.881890 0.314961
vt 3.269531 -1.632813
v 0.000000 -0.022461 -0.007813
vn 0.000000 -0.881890 -0.314961
vt 5.937500 -1.605469
f 1/1/1 2/2/2 3/3/3
f 4/4/4 3/3/3 5/5/5
f 3/3/3 6/6/6 5/5/5
f 2/2/2 7/7/7 3/3/3
f 8/8/8 9/9/9 10/10/10
f 11/11/11 12/12/12 13/13/13
f 11/11/11 14/14/14 12/12/12
f 12/12/12 15/15/15 9/9/9
f 12/12/12 16/16/16 15/15/15
f 8/8/8 17/17/17 18/18/18
f 19/19/19 20/20/20 21/21/21
f 22/22/22 23/23/23 17/17/17
f 20/20/20 24/24/24 22/22/22
f 22/22/22 25/25/25 23/23/23
f 24/24/24 25/25/25 22/22/22
f 10/10/10 17/17/17 8/8/8
f 26/26/26 10/10/10 15/15/15
f 26/26/26 17/17/17 10/10/10
f 21/21/21 20/20/20 27/27/27
f 15/15/15 27/27/27 26/26/26
f 27/27/27 20/20/20 26/26/26
f 15/15/15 10/10/10 9/9/9
f 15/15/15 16/16/16 27/27/27
f 27/27/27 16/16/16 21/21/21
f 28/28/28 29/29/29 30/30/30
v 0.000000 -0.027344 0.012695
vn 0.000000 -0.881890 0.314961
vt 3.269531 -1.632813
v 0.000000 -0.022461 -0.007813
vn 0.000000 -0.881890 -0.314961
vt 5.937500 -1.605469
v 0.014648 -0.023438 0.005859
vn 0.354331 -0.874016 -0.015748
vt 4.195313 -1.398438
v 0.023438 0.013672 -0.016602
vn 0.622047 0.519685 -0.480315
vt 8.023438 2.421875
v 0.022461 0.016602 0.003906
vn 0.606299 0.598425 0.409449
vt 5.558594 3.386719
v 0.026367 0.002930 0.007813
vn 0.622047 0.078740 0.700787
vt 4.769531 1.832031
v 0.022461 -0.018555 -0.002930
vn 0.622047 -0.677165 -0.188976
vt 5.417969 -1.011719
v 0.021484 -0.015625 0.016602
vn 0.740157 -0.125984 0.574803
vt 3.097656 -0.113281
v 0.021484 -0.015625 0.016602
vn 0.740157 -0.125984 0.574803
vt 0.953125 0.777344
v 0.000000 -0.027344 0.012695
vn 0.000000 -0.881890 0.314961
vt 0.921875 -0.152344
v 0.014648 -0.023438 0.005859
vn 0.354331 -0.874016 -0.015748
vt 1.437500 0.042969
v 0.009766 0.027344 -0.002930
vn 0.480315 0.811024 0.055118
vt 6.695313 4.480469
v 0.016602 0.010742 0.013672
vn 0.322835 -0.377953 0.795276
vt 4.234375 3.011719
v 0.014648 -0.014648 -0.019531
vn 0.236220 -0.763780 -0.496063
vt 7.281250 -0.910156
v 0.022461 -0.005859 -0.024414
vn 0.007874 -0.149606 -0.929134
vt 7.574219 0.050781
v 0.026367 0.002930 0.007813
vn 0.622047 0.078740 0.700787
vt 0.656250 1.160156
v 0.013672 -0.001953 0.011719
vn 0.519685 0.307087 0.724409
vt 0.488281 0.945313
v 0.010742 -0.015625 0.014648
vn 0.708661 -0.338583 0.519685
vt 0.402344 0.507813
v 0.000000 0.023438 0.013672
vn 0.000000 0.724409 0.598425
vt 4.667969 4.535156
v 0.031250 -0.006836 -0.002930
vn 0.905512 -0.212598 0.118110
vt 5.742188 0.347656
v 0.031250 -0.006836 -0.002930
vn 0.905512 -0.212598 0.118110
vt 0.980469 0.875000
v 0.022461 -0.018555 -0.002930
vn 0.622047 -0.677165 -0.188976
vt 0.945313 0.476563
v 0.011719 -0.013672 0.026367
vn 0.370079 -0.606299 0.622047
vt 0.093750 0.585938
v 0.009766 -0.002930 0.026367
vn 0.803150 0.314961 0.377953
vt 0.062500 0.914063
v 0.000000 0.009766 0.021484
vn 0.000000 0.173228 0.921260
vt 3.308594 3.121094
v 0.000000 0.023438 0.013672
vn 0.000000 0.724409 0.598425
vt 0.695313 1.113281
v 0.000000 0.009766 0.021484
vn 0.000000 0.173228 0.921260
vt 0.777344 0.312500
v 0.022461 0.016602 0.003906
vn 0.606299 0.598425 0.409449
vt 1.074219 0.859375
v 0.000000 -0.014648 0.024414
vn 0.000000 0.417323 0.842520
vt 0.503906 0.980469
v -0.021484 -0.015625 0.016602
vn -0.740157 -0.125984 0.574803
vt 0.953125 0.777344
v -0.022461 0.016602 0.003906
vn -0.606299 0.598425 0.409449
vt 1.074219 0.859375
v -0.022461 0.016602 0.003906
vn -0.606299 0.598425 0.409449
vt 5.558594 3.386719
f 33/33/33 34/34/34 35/35/35
f 36/36/36 37/37/37 38/38/38
f 39/39/39 35/35/35 34/34/34
f 40/40/40 35/35/35 39/39/39
f 41/41/41 42/42/42 43/43/43
f 44/44/44 37/37/37 36/36/36
f 45/45/45 38/38/38 37/37/37
f 39/39/39 46/46/46 47/47/47
f 48/48/48 49/49/49 50/50/50
f 51/51/51 37/37/37 44/44/44
f 39/39/39 34/34/34 46/46/46
f 36/36/36 38/38/38 52/52/52
f 50/50/50 53/53/53 48/48/48
f 52/52/52 39/39/39 47/47/47
f 50/50/50 54/54/54 53/53/53
f 55/55/55 50/50/50 56/56/56
f 56/56/56 50/50/50 49/49/49
f 57/57/57 45/45/45 37/37/37
f 58/58/58 59/59/59 60/60/60
f 61/61/61 42/42/42 41/41/41
f 62/62/62 42/42/42 61/61/61
f 63/63/63 59/59/59 58/58/58
v -0.022461 0.016602 0.003906
vn -0.606299 0.598425 0.409449
vt 5.558594 3.386719
v -0.016602 0.010742 0.013672
vn -0.322835 -0.377953 0.795276
vt 4.234375 3.011719
v 0.000000 0.009766 0.021484
vn 0.000000 0.173228 0.921260
vt 3.308594 3.121094
v -0.013672 -0.001953 0.011719
vn -0.519685 0.307087 0.724409
vt 0.488281 0.945313
v -0.010742 -0.015625 0.014648
vn -0.708661 -0.338583 0.519685
vt 0.402344 0.507813
v -0.009766 -0.002930 0.026367
vn -0.803150 0.314961 0.377953
vt 0.062500 0.914063
v -0.011719 -0.013672 0.026367
vn -0.370079 -0.606299 0.622047
vt 0.093750 0.585938
v -0.031250 -0.006836 -0.002930
vn -0.905512 -0.212598 0.118110
vt 0.980469 0.875000
v -0.022461 -0.018555 -0.002930
vn -0.622047 -0.677165 -0.188976
vt 0.945313 0.476563
v -0.022461 -0.005859 -0.024414
vn -0.007874 -0.149606 -0.929134
vt 7.574219 0.050781
v -0.022461 -0.018555 -0.002930
vn -0.622047 -0.677165 -0.188976
vt 5.417969 -1.011719
v -0.031250 -0.006836 -0.002930
vn -0.905512 -0.212598 0.118110
vt 5.742188 0.347656
v -0.026367 0.002930 0.007813
vn -0.622047 0.078740 0.700787
vt 0.656250 1.160156
v -0.026367 0.002930 0.007813
vn -0.622047 0.078740 0.700787
vt 4.769531 1.832031
v -0.023438 0.013672 -0.016602
vn -0.622047 0.519685 -0.480315
vt 8.023438 2.421875
v -0.014648 -0.014648 -0.019531
vn -0.236220 -0.763780 -0.496063
vt 7.281250 -0.910156
v 0.000000 -0.022461 -0.007813
vn 0.000000 -0.881890 -0.314961
vt 5.937500 -1.605469
v -0.009766 0.027344 -0.002930
vn -0.480315 0.811024 0.055118
vt 6.695313 4.480469
v 0.000000 0.023438 0.013672
vn 0.000000 0.724409 0.598425
vt 4.667969 4.535156
v -0.014648 -0.023438 0.005859
vn -0.354331 -0.874016 -0.015748
vt 1.437500 0.042969
v 0.000000 -0.027344 0.012695
vn 0.000000 -0.881890 0.314961
vt 0.921875 -0.152344
v -0.021484 -0.015625 0.016602
vn -0.740157 -0.125984 0.574803
vt 0.953125 0.777344
v -0.014648 -0.023438 0.005859
vn -0.354331 -0.874016 -0.015748
vt 4.195313 -1.398438
v -0.021484 -0.015625 0.016602
vn -0.740157 -0.125984 0.574803
vt 3.097656 -0.113281
v 0.000000 -0.027344 0.012695
vn 0.000000 -0.881890 0.314961
vt 3.269531 -1.632813
v 0.000000 0.031250 0.000977
vn 0.000000 0.929134 0.157480
vt 6.191406 4.316406
f 65/65/65 66/66/66 67/67/67
f 68/68/68 69/69/69 70/70/70
f 70/70/70 69/69/69 71/71/71
f 72/72/72 73/73/73 69/69/69
f 74/74/74 75/75/75 76/76/76
f 77/77/77 72/72/72 69/69/69
f 76/76/76 78/78/78 79/79/79
f 80/80/80 81/81/81 75/75/75
f 82/82/82 65/65/65 83/83/83
f 69/69/69 68/68/68 77/77/77
f 74/74/74 80/80/80 75/75/75
f 65/65/65 78/78/78 66/66/66
f 79/79/79 65/65/65 82/82/82
f 84/84/84 85/85/85 86/86/86
f 75/75/75 87/87/87 88/88/88
f 81/81/81 87/87/87 75/75/75
f 78/78/78 65/65/65 79/79/79
f 87/87/87 81/81/81 89/89/89
f 83/83/83 90/90/90 82/82/82
v 0.016602 0.010742 0.013672
vn 0.322835 -0.377953 0.795276
vt 0.619141 0.876953
v 0.000000 0.009766 0.021484
vn 0.000000 0.173228 0.921260
vt -0.273438 0.515625
v 0.000000 0.007813 0.013672
vn 0.000000 0.031496 0.937008
vt -0.123047 0.515625
v 0.012695 0.006836 0.008789
vn 0.157480 -0.291339 0.881890
vt 0.601563 0.720703
v 0.026367 0.002930 0.007813
vn 0.622047 0.078740 0.700787
vt 1.382813 0.660156
v 0.013672 -0.001953 0.011719
vn 0.519685 0.307087 0.724409
vt 0.810547 0.183594
v 0.009766 -0.002930 0.026367
vn 0.803150 0.314961 0.377953
vt 0.433594 -0.166016
v 0.000000 0.004883 0.034180
vn 0.000000 0.181102 0.921260
vt -0.312500 -0.005859
v -0.009766 -0.002930 0.026367
vn -0.803150 0.314961 0.377953
vt 0.433594 -0.166016
v -0.013672 -0.001953 0.011719
vn -0.519685 0.307087 0.724409
vt 0.810547 0.183594
v -0.012695 0.006836 0.008789
vn -0.157480 -0.291339 0.881890
vt 0.601563 0.720703
v -0.026367 0.002930 0.007813
vn -0.622047 0.078740 0.700787
vt 1.382813 0.660156
v -0.016602 0.010742 0.013672
vn -0.322835 -0.377953 0.795276
vt 0.619141 0.876953
v -0.022461 -0.018555 -0.002930
vn -0.622047 -0.677165 -0.188976
vt 1.029297 1.314453
v -0.021484 -0.015625 0.016602
vn -0.740157 -0.125984 0.574803
vt 0.962891 0.246094
v 0.000000 -0.014648 0.011719
vn 0.000000 0.173228 0.929134
vt -0.367188 1.068359
v 0.000000 -0.014648 0.024414
vn 0.000000 0.417323 0.842520
vt -0.363281 0.367188
v 0.021484 -0.015625 0.016602
vn 0.740157 -0.125984 0.574803
vt 0.962891 0.246094
v 0.022461 -0.018555 -0.002930
vn 0.622047 -0.677165 -0.188976
vt 1.029297 1.314453
f 91/91/91 92/92/92 93/93/93
f 93/93/93 94/94/94 91/91/91
f 91/91/91 94/94/94 95/95/95
f 95/95/95 94/94/94 96/96/96
f 96/96/96 94/94/94 93/93/93
f 97/97/97 96/96/96 93/93/93
f 97/97/97 93/93/93 98/98/98
f 98/98/98 93/93/93 99/99/99
f 93/93/93 100/100/100 99/99/99
f 93/93/93 101/101/101 100/100/100
f 100/100/100 101/101/101 102/102/102
f 102/102/102 101/101/101 103/103/103
f 103/103/103 101/101/101 93/93/93
f 93/93/93 92/92/92 103/103/103
f 104/104/104 105/105/105 106/106/106
f 106/106/106 105/105/105 107/107/107
f 107/107/107 108/108/108 106/106/106
f 106/106/106 108/108/108 109/109/109
v 0.000000 -0.011719 0.026367
vn 0.000000 -0.598425 0.724409
vt -0.048828 0.010742
v 0.005859 -0.002930 0.029297
vn 0.299213 -0.149606 0.881890
vt 0.498047 0.460938
v 0.000000 0.004883 0.034180
vn 0.000000 0.181102 0.921260
vt -0.037109 0.910156
v 0.011719 -0.013672 0.026367
vn 0.370079 -0.606299 0.622047
vt 1.060547 0.011719
v 0.009766 -0.002930 0.026367
vn 0.803150 0.314961 0.377953
vt 0.828125 0.470703
v -0.005859 -0.002930 0.029297
vn -0.299213 -0.149606 0.881890
vt 0.498047 0.460938
v -0.011719 -0.013672 0.026367
vn -0.370079 -0.606299 0.622047
vt 1.060547 0.011719
v -0.009766 -0.002930 0.026367
vn -0.803150 0.314961 0.377953
vt 0.828125 0.470703
f 110/110/110 111/111/111 112/112/112
f 110/110/110 113/113/113 111/111/111
f 113/113/113 114/114/114 111/111/111
f 114/114/114 112/112/112 111/111/111
f 115/115/115 116/116/116 110/110/110
f 112/112/112 115/115/115 110/110/110
f 115/115/115 112/112/112 117/117/117
f 115/115/115 117/117/117 116/116/116
v -0.011719 -0.013672 0.026367
vn -0.370079 -0.606299 0.622047
vt 1.007813 0.992188
v -0.010742 -0.015625 0.014648
vn -0.708661 -0.338583 0.519685
vt 0.984375 0.125000
v 0.000000 -0.014648 0.011719
vn 0.000000 0.173228 0.929134
vt 0.109375 -0.023438
v 0.000000 -0.011719 0.026367
vn 0.000000 -0.598425 0.724409
vt 0.015625 1.027344
v 0.010742 -0.015625 0.014648
vn 0.708661 -0.338583 0.519685
vt 0.984375 0.125000
v 0.011719 -0.013672 0.026367
vn 0.370079 -0.606299 0.622047
vt 1.007813 0.992188
f 118/118/118 119/119/119 120/120/120
f 121/121/121 118/118/118 120/120/120
f 120/120/120 122/122/122 123/123/123
f 120/120/120 123/123/123 121/121/121
v 0.006836 0.008789 0.012695
vn 0.149606 0.000000 0.929134
vt 0.000000 1.000000
v 0.007813 0.001953 0.012695
vn 0.149606 0.000000 0.929134
vt 0.000000 0.000000
v 0.014648 0.009766 0.011719
vn 0.149606 0.000000 0.929134
vt 1.000000 1.000000
v 0.014648 0.002930 0.011719
vn 0.149606 0.000000 0.929134
vt 1.000000 0.000000
v -0.014648 0.009766 0.011719
vn -0.149606 0.000000 0.929134
vt 1.000000 1.000000
v -0.007813 0.001953 0.012695
vn -0.149606 0.000000 0.929134
vt 0.000000 0.000000
v -0.006836 0.008789 0.012695
vn -0.149606 0.000000 0.929134
vt 0.000000 1.000000
v -0.014648 0.002930 0.011719
vn -0.149606 0.000000 0.929134
vt 1.000000 0.000000
f 124/124/124 125/125/125 126/126/126
f 125/125/125 127/127/127 126/126/126
f 128/128/128 129/129/129 130/130/130
f 128/128/128 131/131/131 129/129/129
