# Blender v3.6.8 OBJ File: 'ClockHands.blend'
# www.blender.org
mtllib ClockHandsSO.mtl
g PivotPoint#Generic#NoCull
v 365.686096 312.431244 512.887939
v -368.867920 312.431244 510.576843
v -593.661255 312.431244 -188.733322
v 1.959869 312.431244 -618.629272
v 594.879883 312.431244 -185.004929
v 0.000004 698.615295 6.219228
v 0.000004 -73.752853 6.219228
vt 0.181819 0.314921
vt 0.363637 0.314921
vt 0.272728 0.472382
vt 0.000000 0.314921
vt 0.090910 0.472382
vt 0.727273 0.314921
vt 0.909091 0.314921
vt 0.818182 0.472382
vt 0.545455 0.314921
vt 0.636364 0.472382
vt 0.454546 0.472382
vt 0.272728 0.472382
vt 0.090910 0.472382
vt 0.818182 0.472382
vt 0.636364 0.472382
vt 0.454546 0.472382
vn 0.5768 0.7947 0.1894
vn -0.0019 0.7947 0.6071
vn -0.5779 0.7947 0.1858
vn -0.3553 0.7947 -0.4922
vn 0.3584 0.7947 -0.4900
vn -0.5768 0.7947 -0.1894
vn 0.0019 0.7947 -0.6071
vn 0.5779 0.7947 -0.1858
vn 0.3553 0.7947 0.4922
vn -0.3584 0.7947 0.4900
usemtl Gold
s off
f 1/1/1 5/2/1 6/3/1
f 2/4/2 1/1/2 6/5/2
f 3/6/3 2/7/3 6/8/3
f 4/9/4 3/6/4 6/10/4
f 5/2/5 4/9/5 6/11/5
f 1/1/6 5/2/6 7/12/6
f 2/4/7 1/1/7 7/13/7
f 3/6/8 2/7/8 7/14/8
f 4/9/9 3/6/9 7/15/9
f 5/2/10 4/9/10 7/16/10
g HourHand#Generic#NoCull
v 299.130066 240.122620 333.788788
v -282.680298 240.122620 333.788422
v 299.130127 240.122620 -2379.540283
v -282.680359 240.122620 -2379.540527
vt 0.079886 -0.002898
vt 0.920114 1.008831
vt 0.916721 -0.009704
vt 0.083279 1.005787
vn 0.0000 -1.0000 -0.0000
usemtl MinuteHand
s off
f 9/17/11 10/18/11 8/19/11
f 9/17/11 11/20/11 10/18/11
g MinuteHand#Generic#NoCull
v 299.130066 337.244293 333.788788
v -282.680420 337.244293 -5092.870117
v -282.680298 337.244293 333.788422
v 299.130005 337.244293 -5092.869141
vt 0.067138 1.000917
vt 0.948221 -0.000917
vt 0.054745 0.005849
vt 0.960615 0.994151
vn 0.0000 -1.0000 0.0000
usemtl MinuteHand
s off
f 13/21/12 12/22/12 14/23/12
f 13/21/12 15/24/12 12/22/12
