g 0x3770
v -1.118164 0.000000 0.808594
vn -0.456693 0.181102 0.795276
vt -0.035156 -0.001953
v 1.118164 0.000000 0.808594
vn 0.787402 0.196850 0.480315
vt 0.963867 -0.001953
v 0.690430 2.475586 0.478516
vn 0.795276 0.125984 0.488189
vt 0.870117 0.995605
v -0.690430 2.475586 0.478516
vn -0.913386 0.102362 0.212598
vt 0.040039 0.995605
f 1/1/1 2/2/2 3/3/3
f 3/3/3 4/4/4 1/1/1
v 0.690430 2.475586 0.478516
vn 0.795276 0.125984 0.488189
vt 0.796875 0.996094
v 1.118164 0.000000 0.808594
vn 0.787402 0.196850 0.480315
vt 0.924805 0.005859
v 0.000000 0.000000 -1.406250
vn 0.834646 0.086614 -0.417323
vt 0.065430 0.005859
v 0.000000 0.000000 -1.406250
vn -0.834646 0.086614 -0.417323
vt 0.065430 0.005859
v -1.118164 0.000000 0.808594
vn -0.456693 0.181102 0.795276
vt 0.924805 0.005859
v -0.690430 2.475586 0.478516
vn -0.913386 0.102362 0.212598
vt 0.796875 0.996094
v 0.000000 2.475586 -0.885742
vn -0.834646 -0.086614 -0.417323
vt 0.267578 0.996094
v 0.000000 2.475586 -0.885742
vn 0.834646 -0.086614 -0.417323
vt 0.267578 0.996094
f 5/5/5 6/6/6 7/7/7
f 8/8/8 9/9/9 10/10/10
f 10/10/10 11/11/11 8/8/8
f 7/7/7 12/12/12 5/5/5
v -2.833984 4.552734 -2.270508
vn -0.637795 -0.417323 -0.543307
vt 0.238281 0.491211
v -2.947266 5.359375 -1.002930
vn -0.818898 -0.417323 0.188976
vt 0.208008 0.678711
v -3.721680 5.560547 -1.232422
vn -0.795276 -0.496063 -0.023622
vt 0.000000 0.725586
v -3.125977 4.724609 -0.466797
vn -0.708661 -0.606299 0.062992
vt 0.160156 0.531250
v -1.501953 3.566406 -2.176758
vn -0.480315 -0.795276 0.141732
vt 0.595703 0.261719
v 2.830078 4.553711 -2.270508
vn 0.637795 -0.417323 -0.543307
vt 1.759766 0.491211
v 2.947266 5.359375 -1.002930
vn 0.818898 -0.417323 0.188976
vt 1.791016 0.678711
v 3.125977 4.724609 -0.466797
vn 0.708661 -0.614173 0.062992
vt 1.838867 0.531250
v 1.497070 3.568359 -2.176758
vn 0.480315 -0.795276 0.141732
vt 1.401367 0.261719
v 3.392578 5.540039 -2.264648
vn 0.346457 0.196850 -0.850394
vt 1.911133 0.720703
v 3.683594 6.299805 -1.509766
vn 0.708661 0.511811 0.338583
vt 1.989258 0.897461
v 3.721680 5.560547 -1.232422
vn 0.795276 -0.496063 -0.023622
vt 2.000000 0.725586
v -2.979492 6.714844 -1.508789
vn 0.055118 0.787402 0.511811
vt 0.199219 0.994141
v -2.947266 5.359375 -1.002930
vn -0.110236 0.417323 0.834646
vt 0.208008 0.678711
v -1.858398 4.733398 -0.534180
vn 0.196850 0.645669 0.653543
vt 0.500000 0.533203
v 0.000000 2.475586 -0.885742
vn -0.346457 -0.834646 0.244094
vt 1.000000 0.007813
v -0.958984 3.904297 0.089844
vn 0.629921 -0.055118 0.700787
vt 0.742188 0.339844
v -1.598633 3.808594 0.657227
vn 0.181102 -0.590551 0.708661
vt 0.570313 0.318359
v 2.979492 6.714844 -1.508789
vn -0.149606 0.881890 0.291339
vt 1.799805 0.994141
v 2.947266 5.359375 -1.002930
vn 0.102362 0.370079 0.858268
vt 1.791016 0.678711
v 0.958984 3.904297 0.089844
vn 0.000000 0.811024 0.472441
vt 1.256836 0.339844
v 1.603516 3.804688 0.658203
vn -0.133858 0.748031 0.551181
vt 1.430664 0.317383
v 1.858398 4.733398 -0.534180
vn -0.181102 0.685039 0.622047
vt 1.499023 0.533203
v 0.000000 2.475586 -0.885742
vn 0.346457 -0.834646 0.244094
vt 1.000000 0.007813
v 2.313477 4.464844 -0.534180
vn 0.519685 -0.787402 -0.015748
vt 1.621094 0.470703
v 2.313477 4.464844 -0.534180
vn 0.149606 0.614173 0.692913
vt 1.621094 0.470703
v 1.852539 5.414063 -1.443359
vn -0.543307 0.574803 -0.503937
vt 1.497070 0.691406
v 1.603516 3.804688 0.658203
vn -0.181102 -0.598425 0.700787
vt 1.430664 0.317383
v 0.958984 3.904297 0.089844
vn -0.622047 -0.055118 0.700787
vt 1.256836 0.339844
v 0.000000 2.475586 -0.885742
vn 0.000000 0.433071 -0.834646
vt 1.000000 0.007813
v 0.765625 4.773438 -1.485352
vn -0.732283 0.590551 0.000000
vt 1.205078 0.541992
v 1.497070 3.568359 -2.176758
vn -0.393701 0.267717 -0.811024
vt 1.401367 0.261719
f 13/13/13 14/14/14 15/15/15
f 16/16/16 14/14/14 13/13/13
f 13/13/13 17/17/17 16/16/16
f 18/18/18 19/19/19 20/20/20
f 20/20/20 21/21/21 18/18/18
f 22/22/22 23/23/23 24/24/24
f 25/25/25 26/26/26 27/27/27
f 28/28/28 29/29/29 30/30/30
f 23/23/23 22/22/22 31/31/31
f 23/23/23 31/31/31 32/32/32
f 33/33/33 34/34/34 35/35/35
f 36/36/36 21/21/21 37/37/37
f 32/32/32 35/35/35 38/38/38
f 32/32/32 31/31/31 35/35/35
f 39/39/39 31/31/31 22/22/22
f 40/40/40 41/41/41 36/36/36
f 42/42/42 43/43/43 44/44/44
v 0.765625 4.773438 -1.485352
vn -0.732283 0.590551 0.000000
vt 1.205078 0.541992
v 0.000000 2.475586 -0.885742
vn 0.000000 0.433071 -0.834646
vt 1.000000 0.007813
v 0.839844 4.258789 -0.952148
vn -0.566929 0.716535 0.220472
vt 1.225586 0.422852
v -3.683594 6.299805 -1.509766
vn -0.811024 0.472441 -0.062992
vt 0.009766 0.897461
v -2.979492 6.714844 -1.508789
vn 0.055118 0.787402 0.511811
vt 0.199219 0.994141
v -3.392578 5.540039 -2.264648
vn -0.346457 0.196850 -0.850394
vt 0.087891 0.720703
v -3.721680 5.560547 -1.232422
vn -0.795276 -0.496063 -0.023622
vt 0.000000 0.725586
v -2.833984 4.552734 -2.270508
vn -0.637795 -0.417323 -0.543307
vt 0.238281 0.491211
v -1.852539 5.414063 -1.443359
vn 0.543307 0.574803 -0.503937
vt 0.501953 0.691406
v -1.501953 3.566406 -2.176758
vn 0.393701 0.267717 -0.811024
vt 0.595703 0.261719
v -3.721680 5.560547 -1.232422
vn -0.181102 0.322835 0.866142
vt 0.000000 0.725586
v 2.830078 4.553711 -2.270508
vn 0.637795 -0.417323 -0.543307
vt 1.759766 0.491211
v 3.392578 5.540039 -2.264648
vn 0.346457 0.196850 -0.850394
vt 1.911133 0.720703
v 3.721680 5.560547 -1.232422
vn 0.795276 -0.496063 -0.023622
vt 2.000000 0.725586
v -1.858398 4.733398 -0.534180
vn 0.196850 0.645669 0.653543
vt 0.500000 0.533203
v -0.765625 4.773438 -1.485352
vn 0.732283 0.590551 0.000000
vt 0.793945 0.541992
v -0.839844 4.258789 -0.952148
vn 0.566929 0.716535 0.220472
vt 0.773438 0.422852
v -2.313477 4.464844 -0.534180
vn -0.519685 -0.787402 -0.015748
vt 0.377930 0.470703
v -1.501953 3.566406 -2.176758
vn -0.480315 -0.795276 0.141732
vt 0.595703 0.261719
v 0.000000 2.475586 -0.885742
vn -0.346457 -0.834646 0.244094
vt 1.000000 0.007813
v -1.598633 3.808594 0.657227
vn 0.181102 -0.590551 0.708661
vt 0.570313 0.318359
v -2.553711 4.057617 0.234375
vn -0.519685 -0.779528 -0.086614
vt 0.313477 0.375977
v -1.598633 3.808594 0.657227
vn 0.133858 0.748031 0.551181
vt 0.570313 0.318359
v -0.958984 3.904297 0.089844
vn 0.000000 0.811024 0.472441
vt 0.742188 0.339844
v -2.553711 4.057617 0.234375
vn -0.267717 0.787402 0.440945
vt 0.313477 0.375977
v -3.125977 4.724609 -0.466797
vn -0.708661 -0.606299 0.062992
vt 0.160156 0.531250
v -2.313477 4.464844 -0.534180
vn -0.259843 0.448819 0.779528
vt 0.377930 0.470703
v 0.000000 2.475586 -0.885742
vn 0.346457 -0.834646 0.244094
vt 1.000000 0.007813
v 2.546875 4.059570 0.234375
vn 0.519685 -0.779528 -0.086614
vt 1.683594 0.375977
v 1.603516 3.804688 0.658203
vn -0.181102 -0.598425 0.700787
vt 1.430664 0.317383
v 1.852539 5.414063 -1.443359
vn -0.543307 0.574803 -0.503937
vt 1.497070 0.691406
v 1.497070 3.568359 -2.176758
vn -0.393701 0.267717 -0.811024
vt 1.401367 0.261719
f 45/45/45 46/46/46 47/47/47
f 48/48/48 49/49/49 50/50/50
f 50/50/50 51/51/51 48/48/48
f 51/51/51 50/50/50 52/52/52
f 53/53/53 54/54/54 52/52/52
f 49/49/49 48/48/48 55/55/55
f 56/56/56 57/57/57 58/58/58
f 49/49/49 53/53/53 50/50/50
f 59/59/59 53/53/53 49/49/49
f 60/60/60 61/61/61 46/46/46
f 53/53/53 60/60/60 54/54/54
f 62/62/62 63/63/63 64/64/64
f 65/65/65 66/66/66 64/64/64
f 67/67/67 68/68/68 59/59/59
f 68/68/68 61/61/61 59/59/59
f 59/59/59 60/60/60 53/53/53
f 59/59/59 69/69/69 67/67/67
f 46/46/46 54/54/54 60/60/60
f 64/64/64 66/66/66 62/62/62
f 62/62/62 70/70/70 63/63/63
f 59/59/59 71/71/71 69/69/69
f 61/61/61 60/60/60 59/59/59
f 72/72/72 73/73/73 74/74/74
f 45/45/45 75/75/75 76/76/76
f 56/56/56 76/76/76 75/75/75
v 3.125977 4.724609 -0.466797
vn 0.708661 -0.614173 0.062992
vt 1.838867 0.531250
v 2.313477 4.464844 -0.534180
vn 0.519685 -0.787402 -0.015748
vt 1.621094 0.470703
v 1.497070 3.568359 -2.176758
vn 0.480315 -0.795276 0.141732
vt 1.401367 0.261719
v 1.858398 4.733398 -0.534180
vn -0.181102 0.685039 0.622047
vt 1.499023 0.533203
v 2.546875 4.059570 0.234375
vn 0.267717 0.779528 0.440945
vt 1.683594 0.375977
v 2.313477 4.464844 -0.534180
vn 0.149606 0.614173 0.692913
vt 1.621094 0.470703
v 2.546875 4.059570 0.234375
vn 0.519685 -0.779528 -0.086614
vt 1.683594 0.375977
v 0.000000 2.475586 -0.885742
vn 0.346457 -0.834646 0.244094
vt 1.000000 0.007813
v 1.603516 3.804688 0.658203
vn -0.133858 0.748031 0.551181
vt 1.430664 0.317383
v 0.839844 4.258789 -0.952148
vn -0.566929 0.716535 0.220472
vt 1.225586 0.422852
v 0.958984 3.904297 0.089844
vn 0.000000 0.811024 0.472441
vt 1.256836 0.339844
v -3.125977 4.724609 -0.466797
vn 0.039370 0.275591 0.897638
vt 0.160156 0.531250
v -2.313477 4.464844 -0.534180
vn -0.259843 0.448819 0.779528
vt 0.377930 0.470703
v -1.858398 4.733398 -0.534180
vn 0.196850 0.645669 0.653543
vt 0.500000 0.533203
v 2.947266 5.359375 -1.002930
vn 0.102362 0.370079 0.858268
vt 1.791016 0.678711
v 3.721680 5.560547 -1.232422
vn 0.165354 0.330709 0.866142
vt 2.000000 0.725586
v 3.683594 6.299805 -1.509766
vn 0.708661 0.511811 0.338583
vt 1.989258 0.897461
v 1.852539 5.414063 -1.443359
vn -0.543307 0.574803 -0.503937
vt 1.497070 0.691406
v 0.765625 4.773438 -1.485352
vn -0.732283 0.590551 0.000000
vt 1.205078 0.541992
v 2.979492 6.714844 -1.508789
vn -0.149606 0.881890 0.291339
vt 1.799805 0.994141
v 0.000000 4.098633 -0.549805
vn 0.000000 0.913386 -0.228346
vt 1.000000 0.385742
v 0.000000 2.475586 -0.885742
vn 0.000000 0.433071 -0.834646
vt 1.000000 0.007813
v -0.839844 4.258789 -0.952148
vn 0.566929 0.716535 0.220472
vt 0.773438 0.422852
v -0.958984 3.904297 0.089844
vn 0.000000 0.811024 0.472441
vt 0.742188 0.339844
v -0.690430 2.475586 0.478516
vn -0.913386 0.102362 0.212598
vt 0.813477 0.007813
v 0.000000 2.475586 -0.885742
vn -0.834646 -0.086614 -0.417323
vt 1.000000 0.007813
v 3.125977 4.724609 -0.466797
vn -0.228346 0.543307 0.724409
vt 1.838867 0.531250
v 0.000000 2.475586 -0.885742
vn 0.834646 -0.086614 -0.417323
vt 1.000000 0.007813
v 0.690430 2.475586 0.478516
vn 0.795276 0.125984 0.488189
vt 1.185547 0.007813
v -2.833984 4.552734 -2.270508
vn -0.637795 -0.417323 -0.543307
vt 0.238281 0.491211
v -3.392578 5.540039 -2.264648
vn -0.346457 0.196850 -0.850394
vt 0.087891 0.720703
v -1.852539 5.414063 -1.443359
vn 0.543307 0.574803 -0.503937
vt 0.501953 0.691406
f 77/77/77 78/78/78 79/79/79
f 80/80/80 81/81/81 82/82/82
f 78/78/78 83/83/83 84/84/84
f 80/80/80 85/85/85 81/81/81
f 80/80/80 86/86/86 87/87/87
f 88/88/88 89/89/89 90/90/90
f 91/91/91 92/92/92 93/93/93
f 80/80/80 94/94/94 95/95/95
f 80/80/80 96/96/96 94/94/94
f 95/95/95 86/86/86 80/80/80
f 97/97/97 86/86/86 98/98/98
f 97/97/97 99/99/99 100/100/100
f 101/101/101 100/100/100 102/102/102
f 98/98/98 99/99/99 97/97/97
f 87/87/87 86/86/86 97/97/97
f 97/97/97 100/100/100 87/87/87
f 82/82/82 103/103/103 91/91/91
f 104/104/104 87/87/87 105/105/105
f 106/106/106 107/107/107 108/108/108
f 105/105/105 87/87/87 100/100/100
f 105/105/105 100/100/100 101/101/101
v 1.852539 5.414063 -1.443359
vn -0.543307 0.574803 -0.503937
vt 1.497070 0.691406
v 3.392578 5.540039 -2.264648
vn 0.346457 0.196850 -0.850394
vt 1.911133 0.720703
v 2.830078 4.553711 -2.270508
vn 0.637795 -0.417323 -0.543307
vt 1.759766 0.491211
v -3.721680 5.560547 -1.232422
vn -0.181102 0.322835 0.866142
vt 0.000000 0.725586
v -2.947266 5.359375 -1.002930
vn -0.110236 0.417323 0.834646
vt 0.208008 0.678711
v -2.979492 6.714844 -1.508789
vn 0.055118 0.787402 0.511811
vt 0.199219 0.994141
v -1.858398 4.733398 -0.534180
vn 0.196850 0.645669 0.653543
vt 0.500000 0.533203
v -3.125977 4.724609 -0.466797
vn 0.039370 0.275591 0.897638
vt 0.160156 0.531250
v 3.721680 5.560547 -1.232422
vn 0.795276 -0.496063 -0.023622
vt 2.000000 0.725586
v 2.947266 5.359375 -1.002930
vn 0.818898 -0.417323 0.188976
vt 1.791016 0.678711
f 109/109/109 110/110/110 111/111/111
f 112/112/112 113/113/113 114/114/114
f 115/115/115 113/113/113 116/116/116
f 117/117/117 118/118/118 111/111/111
